<?xml version="1.0" encoding="UTF-8" standalone="no"?>
<!-- Created with Inkscape (http://www.inkscape.org/) -->

<svg
   xmlns:dc="http://purl.org/dc/elements/1.1/"
   xmlns:cc="http://creativecommons.org/ns#"
   xmlns:rdf="http://www.w3.org/1999/02/22-rdf-syntax-ns#"
   xmlns:svg="http://www.w3.org/2000/svg"
   xmlns="http://www.w3.org/2000/svg"
   xmlns:sodipodi="http://sodipodi.sourceforge.net/DTD/sodipodi-0.dtd"
   xmlns:inkscape="http://www.inkscape.org/namespaces/inkscape"
   width="360"
   height="260"
   id="svg2"
   version="1.1"
   inkscape:version="0.48.5 r10040"
   sodipodi:docname="AnalogCorrelation.eps">
  <defs
     id="defs4" />
  <sodipodi:namedview
     id="base"
     pagecolor="#ffffff"
     bordercolor="#666666"
     borderopacity="1.0"
     inkscape:pageopacity="0.0"
     inkscape:pageshadow="2"
     inkscape:zoom="0.7"
     inkscape:cx="236.40034"
     inkscape:cy="367.61687"
     inkscape:document-units="px"
     inkscape:current-layer="layer1"
     showgrid="true"
     inkscape:snap-nodes="true"
     fit-margin-top="0"
     fit-margin-left="0"
     fit-margin-right="0"
     fit-margin-bottom="0"
     inkscape:window-width="1366"
     inkscape:window-height="716"
     inkscape:window-x="-8"
     inkscape:window-y="-8"
     inkscape:window-maximized="1">
    <inkscape:grid
       type="xygrid"
       id="grid2989"
       empspacing="5"
       visible="true"
       enabled="true"
       snapvisiblegridlinesonly="true"
       originx="64.536355px"
       originy="47.509663px" />
  </sodipodi:namedview>
  <metadata
     id="metadata7">
    <rdf:RDF>
      <cc:Work
         rdf:about="">
        <dc:format>image/svg+xml</dc:format>
        <dc:type
           rdf:resource="http://purl.org/dc/dcmitype/StillImage" />
        <dc:title></dc:title>
      </cc:Work>
    </rdf:RDF>
  </metadata>
  <g
     inkscape:label="Layer 1"
     inkscape:groupmode="layer"
     id="layer1"
     style="display:inline"
     transform="translate(64.536355,-839.87161)">
    <path
       style="fill:none;stroke:#000000;stroke-width:0.9130398px;stroke-linecap:butt;stroke-linejoin:miter;stroke-opacity:1"
       d="m 69.91365,877.19068 0,80"
       id="path2987"
       inkscape:connector-curvature="0" />
    <path
       style="fill:none;stroke:#000000;stroke-width:1px;stroke-linecap:butt;stroke-linejoin:miter;stroke-opacity:1"
       d="m 84.91365,882.19068 -15,25 -15,-25"
       id="path2991"
       inkscape:connector-curvature="0" />
    <path
       style="fill:none;stroke:#000000;stroke-width:0.9130398px;stroke-linecap:butt;stroke-linejoin:miter;stroke-opacity:1"
       d="m 159.91365,877.19068 0,80"
       id="path2987-1"
       inkscape:connector-curvature="0" />
    <path
       style="fill:none;stroke:#000000;stroke-width:1px;stroke-linecap:butt;stroke-linejoin:miter;stroke-opacity:1"
       d="m 174.91365,882.19068 -15,25 -15,-25"
       id="path2991-7"
       inkscape:connector-curvature="0" />
    <path
       style="fill:none;stroke:#000000;stroke-width:1px;stroke-linecap:butt;stroke-linejoin:miter;stroke-opacity:1"
       d="m 49.913651,957.19068 39.999999,0 0,0 -20,20 z"
       id="path3014"
       inkscape:connector-curvature="0" />
    <path
       style="fill:none;stroke:#000000;stroke-width:1px;stroke-linecap:butt;stroke-linejoin:miter;stroke-opacity:1"
       d="m 49.913651,977.19068 39.999999,0"
       id="path3016"
       inkscape:connector-curvature="0" />
    <path
       style="fill:none;stroke:#000000;stroke-width:1px;stroke-linecap:butt;stroke-linejoin:miter;stroke-opacity:1"
       d="m 139.91365,957.19068 40,0 0,0 -20,20 z"
       id="path3014-4"
       inkscape:connector-curvature="0" />
    <path
       style="fill:none;stroke:#000000;stroke-width:1px;stroke-linecap:butt;stroke-linejoin:miter;stroke-opacity:1"
       d="m 139.91365,977.19068 40,0"
       id="path3016-0"
       inkscape:connector-curvature="0" />
    <path
       style="fill:none;stroke:#000000;stroke-width:1px;stroke-linecap:butt;stroke-linejoin:miter;stroke-opacity:1"
       d="m 69.91365,977.19068 0,30.00002"
       id="path3054"
       inkscape:connector-curvature="0" />
    <path
       style="fill:none;stroke:#000000;stroke-width:1px;stroke-linecap:butt;stroke-linejoin:miter;stroke-opacity:1"
       d="m 159.91365,977.19068 0,30.00002"
       id="path3056"
       inkscape:connector-curvature="0" />
    <path
       style="fill:none;stroke:#000000;stroke-width:1px;stroke-linecap:butt;stroke-linejoin:miter;stroke-opacity:1"
       d="m 159.91365,987.19068 30,0 0,10"
       id="path3058"
       inkscape:connector-curvature="0" />
    <path
       style="fill:none;stroke:#000000;stroke-width:1px;stroke-linecap:butt;stroke-linejoin:miter;stroke-opacity:1"
       d="m 69.91365,987.19068 -29.999999,0 0,10"
       id="path3060"
       inkscape:connector-curvature="0" />
    <path
       style="fill:none;stroke:#000000;stroke-width:2.75063467px;stroke-linecap:butt;stroke-linejoin:miter;stroke-opacity:1"
       d="m 29.913651,997.19068 20,0"
       id="path3062"
       inkscape:connector-curvature="0" />
    <path
       style="fill:none;stroke:#000000;stroke-width:2.76580977px;stroke-linecap:butt;stroke-linejoin:miter;stroke-opacity:1"
       d="m 29.913651,1001.6856 20,0"
       id="path3064"
       inkscape:connector-curvature="0" />
    <path
       style="fill:none;stroke:#000000;stroke-width:2.75063467px;stroke-linecap:butt;stroke-linejoin:miter;stroke-opacity:1"
       d="m 179.91365,997.69576 20,0"
       id="path3062-9"
       inkscape:connector-curvature="0" />
    <path
       style="fill:none;stroke:#000000;stroke-width:2.76580977px;stroke-linecap:butt;stroke-linejoin:miter;stroke-opacity:1"
       d="m 179.91365,1002.1907 20,0"
       id="path3064-4"
       inkscape:connector-curvature="0" />
    <path
       style="fill:none;stroke:#000000;stroke-width:1px;stroke-linecap:butt;stroke-linejoin:miter;stroke-opacity:1"
       d="m 39.913651,1002.1907 0,10"
       id="path3087"
       inkscape:connector-curvature="0" />
    <path
       style="fill:none;stroke:#000000;stroke-width:1px;stroke-linecap:butt;stroke-linejoin:miter;stroke-opacity:1"
       d="m 189.91365,1002.1907 0,10"
       id="path3089"
       inkscape:connector-curvature="0" />
    <path
       style="fill:none;stroke:#000000;stroke-width:1px;stroke-linecap:butt;stroke-linejoin:miter;stroke-opacity:1"
       d="m 184.91365,1017.1907 10,-10"
       id="path3091"
       inkscape:connector-curvature="0" />
    <text
       xml:space="preserve"
       style="font-size:10px;font-style:normal;font-weight:normal;line-height:125%;letter-spacing:0px;word-spacing:0px;fill:#000000;fill-opacity:1;stroke:none;font-family:Sans"
       x="114.91365"
       y="937.19067"
       id="text3095"
       sodipodi:linespacing="125%"><tspan
         sodipodi:role="line"
         id="tspan3097"
         x="114.91365"
         y="937.19067"
         style="text-align:center;text-anchor:middle">Diodes for power</tspan><tspan
         sodipodi:role="line"
         x="114.91365"
         y="949.69067"
         id="tspan3099"
         style="text-align:center;text-anchor:middle">rectification</tspan></text>
    <text
       xml:space="preserve"
       style="font-size:10px;font-style:normal;font-weight:normal;line-height:125%;letter-spacing:0px;word-spacing:0px;fill:#000000;fill-opacity:1;stroke:none;font-family:Sans"
       x="14.913651"
       y="867.19067"
       id="text3101"
       sodipodi:linespacing="125%"><tspan
         sodipodi:role="line"
         id="tspan3103"
         x="14.913651"
         y="867.19067">Antenna 1 = Signal 1</tspan></text>
    <text
       xml:space="preserve"
       style="font-size:10px;font-style:normal;font-weight:normal;line-height:125%;letter-spacing:0px;word-spacing:0px;fill:#000000;fill-opacity:1;stroke:none;font-family:Sans"
       x="124.91365"
       y="867.19067"
       id="text3101-8"
       sodipodi:linespacing="125%"><tspan
         sodipodi:role="line"
         id="tspan3103-8"
         x="124.91365"
         y="867.19067">Antenna 2 = Signal 2</tspan></text>
    <text
       xml:space="preserve"
       style="font-size:10px;font-style:normal;font-weight:normal;line-height:125%;letter-spacing:0px;word-spacing:0px;fill:#000000;fill-opacity:1;stroke:none;font-family:Sans"
       x="202.34773"
       y="986.77692"
       id="text3126"
       sodipodi:linespacing="125%"><tspan
         sodipodi:role="line"
         id="tspan3128"
         x="202.34773"
         y="986.77692">Signal 2 Average</tspan></text>
    <text
       xml:space="preserve"
       style="font-size:10px;font-style:normal;font-weight:normal;line-height:125%;letter-spacing:0px;word-spacing:0px;fill:#000000;fill-opacity:1;stroke:none;font-family:Sans"
       x="-45.086349"
       y="987.19067"
       id="text3126-2"
       sodipodi:linespacing="125%"><tspan
         sodipodi:role="line"
         id="tspan3128-4"
         x="-45.086349"
         y="987.19067">Signal 1 Average</tspan></text>
    <flowRoot
       xml:space="preserve"
       id="flowRoot3151"
       style="font-size:10px;font-style:normal;font-weight:normal;line-height:125%;letter-spacing:0px;word-spacing:0px;fill:#000000;fill-opacity:1;stroke:none;font-family:Sans"><flowRegion
         id="flowRegion3153"><rect
           id="rect3155"
           width="18.182745"
           height="38.890873"
           x="32.324883"
           y="872.04993" /></flowRegion><flowPara
         id="flowPara3157"></flowPara></flowRoot>    <path
       style="fill:#0a0808;fill-opacity:0"
       d="m -64.536355,878.0133 0,-156.78571 65.7142861,0 c 36.1428569,0 65.7142859,0.0762 65.7142859,0.16927 0,0.0931 -0.482143,1.383 -1.071429,2.86644 -0.589285,1.48344 -1.071428,2.77334 -1.071428,2.86644 0,0.0931 0.305707,0.16928 0.679346,0.16928 0.433736,0 0.814386,-0.38737 1.052854,-1.07143 0.330471,-0.94799 0.536953,-1.07143 1.792275,-1.07143 1.286021,0 1.440789,0.10025 1.654096,1.07143 0.179797,0.8186 0.432754,1.07143 1.071993,1.07143 l 0.836668,0 -1.189282,-2.94643 -1.189282,-2.94643 4.122014,-0.10103 c 3.737175,-0.0916 5.303364,0.11268 4.115746,0.53683 -0.51915,0.18541 -0.609303,1.17134 -0.107107,1.17134 0.186625,0 0.387518,0.92411 0.446429,2.05357 0.101393,1.94404 0.159493,2.0596 1.08925,2.16658 1.03521,0.11912 1.36316,-0.52493 0.446428,-0.87671 -0.611703,-0.23473 -0.777739,-3.34344 -0.178571,-3.34344 0.196428,0 0.357143,-0.24107 0.357143,-0.53571 0,-0.29465 -0.160715,-0.53572 -0.357143,-0.53572 -0.196429,0 -0.357143,-0.16071 -0.357143,-0.35714 0,-0.23244 4.832393,-0.3473 13.839286,-0.32895 7.61161,0.0155 13.63839,0.10926 13.39286,0.20834 -0.24554,0.0991 -0.44643,0.42524 -0.44643,0.7248 0,0.40265 0.23282,0.48624 0.89286,0.32058 0.88886,-0.22309 0.89285,-0.21288 0.89285,2.28271 0,2.26871 0.0679,2.50681 0.71429,2.50681 0.65826,0 0.71428,-0.2381 0.71428,-3.03572 l 0,-3.03571 6.78572,0 6.78571,0 0,0.84912 c 0,1.05729 0.47525,1.45312 2.44789,2.03881 1.64669,0.4889 2.27118,1.26138 1.44344,1.7855 -0.85741,0.54291 -2.08082,0.35658 -2.54564,-0.38772 -0.50791,-0.81328 -1.70283,-0.96636 -1.70283,-0.21814 0,0.27289 0.28602,0.84937 0.6356,1.28108 0.93097,1.1497 3.8562,1.16583 4.77889,0.0264 1.26006,-1.5561 0.64767,-2.87928 -1.66449,-3.59643 -1.6678,-0.5173 -2.39249,-1.01753 -2.11785,-1.46191 0.3338,-0.54008 2.55861,-0.36496 2.78272,0.21904 0.11306,0.29464 0.45168,0.53572 0.75249,0.53572 0.30081,0 0.54693,-0.24108 0.54693,-0.53572 0,-0.46343 1.3492,-0.53571 10,-0.53571 l 10,0 0,3.03571 c 0,2.79762 0.056,3.03572 0.71428,3.03572 0.65827,0 0.71429,-0.2381 0.71429,-3.03572 l 0,-3.03571 2.41071,0.0282 c 1.32589,0.0155 2.20982,0.10926 1.96429,0.20834 -0.24554,0.0991 -0.44643,0.42524 -0.44643,0.7248 0,0.40265 0.23282,0.48624 0.89286,0.32058 0.88886,-0.22309 0.89285,-0.21288 0.89285,2.28271 0,2.26871 0.0678,2.50681 0.71429,2.50681 0.65826,0 0.71428,-0.2381 0.71428,-3.03572 l 0,-3.03571 10.17858,0 c 5.59821,0 10.17857,0.0762 10.17857,0.16927 0,0.0931 -0.48215,1.383 -1.07143,2.86644 -0.58929,1.48344 -1.07143,2.77334 -1.07143,2.86644 0,0.0931 0.30571,0.16928 0.67935,0.16928 0.43373,0 0.81438,-0.38737 1.05285,-1.07143 0.33047,-0.94799 0.53695,-1.07143 1.79227,-1.07143 1.28603,0 1.44079,0.10025 1.6541,1.07143 0.1798,0.8186 0.43275,1.07143 1.07199,1.07143 l 0.83667,0 -1.18928,-2.94643 -1.18928,-2.94643 4.12201,-0.10103 c 3.73718,-0.0916 5.30337,0.11268 4.11575,0.53683 -0.51915,0.18541 -0.60931,1.17134 -0.10711,1.17134 0.18663,0 0.38752,0.92411 0.44643,2.05357 0.10139,1.94404 0.15949,2.0596 1.08925,2.16658 1.03521,0.11912 1.36316,-0.52493 0.44643,-0.87671 -0.61171,-0.23473 -0.77774,-3.34344 -0.17857,-3.34344 0.19643,0 0.35714,-0.24107 0.35714,-0.53571 0,-0.29465 -0.16071,-0.53572 -0.35714,-0.53572 -0.19643,0 -0.35715,-0.16071 -0.35715,-0.35714 0,-0.23168 4.6556,-0.35714 13.2525,-0.35714 11.63327,0 13.22738,0.0655 13.04692,0.53571 -0.13736,0.35797 0.015,0.53572 0.4593,0.53572 0.36567,0 0.75737,-0.24108 0.87044,-0.53572 0.27384,-0.71363 1.87933,-0.68672 2.15673,0.0362 0.14871,0.38753 -0.4146,1.20591 -1.74751,2.53882 -2.64388,2.64388 -2.58683,2.96074 0.53305,2.96074 1.98413,0 2.5,-0.11055 2.5,-0.53572 0,-0.39713 -0.41736,-0.53571 -1.61341,-0.53571 l -1.61342,0 1.61342,-1.54593 c 1.12469,-1.07764 1.61341,-1.83492 1.61341,-2.5 l 0,-0.95407 6.25,0 6.25,0 0,0.84912 c 0,1.05729 0.47525,1.45312 2.44789,2.03881 1.64669,0.4889 2.27118,1.26138 1.44344,1.7855 -0.85741,0.54291 -2.08082,0.35658 -2.54564,-0.38772 -0.5079,-0.81328 -1.70283,-0.96636 -1.70283,-0.21814 0,0.27289 0.28602,0.84937 0.6356,1.28108 0.93097,1.1497 3.8562,1.16583 4.77889,0.0264 1.26006,-1.5561 0.64767,-2.87928 -1.66449,-3.59643 -1.6678,-0.5173 -2.39249,-1.01753 -2.11785,-1.46191 0.3338,-0.54008 2.55861,-0.36496 2.78272,0.21904 0.26713,0.69613 1.29942,0.69613 1.29942,0 0,-0.46343 1.3492,-0.53571 10,-0.53571 l 10,0 0,3.03571 c 0,2.79762 0.056,3.03572 0.71428,3.03572 0.65827,0 0.71429,-0.2381 0.71429,-3.03572 l 0,-3.03571 1.78571,0 c 1.34921,0 1.78572,0.13095 1.78572,0.53571 0,0.70841 0.93584,0.68991 1.20976,-0.0239 0.24978,-0.65092 2.04763,-0.5782 2.26744,0.0917 0.0767,0.23372 -0.75467,1.3975 -1.84746,2.58618 -1.09279,1.18868 -1.98689,2.32335 -1.98689,2.52148 0,0.20792 1.05708,0.36025 2.5,0.36025 1.98413,0 2.5,-0.11055 2.5,-0.53572 0,-0.38966 -0.40188,-0.53571 -1.47405,-0.53571 l -1.47406,0 1.47406,-1.59917 c 0.91505,-0.99271 1.47405,-1.94078 1.47405,-2.5 l 0,-0.90083 95,0 95,0 0,156.78571 0,156.78568 -261.07143,0 -261.071425,0 0,-156.78568 z m 155.156311,-5.33484 c 4.361854,-4.37022 4.909715,-5.04813 4.489186,-5.55484 -0.4279,-0.51558 -0.701182,-0.35726 -2.562243,1.48438 l -2.083253,2.06151 0,-3.64953 0,-3.64954 4.821428,0 4.821426,0 0,-1.60714 0,-1.60714 -10.178569,0 -10.178571,0 0,1.60714 0,1.60714 4.821428,0 4.821429,0 0,4.18803 0,4.18804 -2.543811,2.5609 c -2.323332,2.33894 -2.813875,3.34875 -1.626757,3.34875 0.236575,0 2.665814,-2.23997 5.398307,-4.9777 l 0,0 z m 150.000004,0 c 4.36185,-4.37022 4.90971,-5.04813 4.48918,-5.55484 -0.4279,-0.51558 -0.70118,-0.35726 -2.56224,1.48438 l -2.08325,2.06151 0,-3.47096 0,-3.47096 4.82142,0 4.82143,0 0,-1.60715 0,-1.60714 -10.17857,0 -10.17857,0 0,1.60714 0,1.60715 4.82143,0 4.82143,0 0,4.00945 0,4.00947 -2.54381,2.5609 c -2.32334,2.33894 -2.81388,3.34875 -1.62676,3.34875 0.23657,0 2.66581,-2.23997 5.39831,-4.9777 z m -120.15631,-20.0223 0,-14.64286 9.82142,0 c 9.58334,0 9.82143,-0.0173 9.82143,-0.71428 0,-0.69579 -0.23809,-0.71429 -9.19399,-0.71429 l -9.19399,0 9.7297,-9.73454 c 5.35134,-5.35399 9.72971,-9.85399 9.72971,-10 0,-0.146 -4.66071,-0.26546 -10.35714,-0.26546 l -10.35714,0 0,-24.4385 0,-24.43849 7.52049,-12.52674 c 4.13627,-6.8897 7.42143,-12.68702 7.30035,-12.88293 -0.12108,-0.19591 -0.41302,-0.3562 -0.64877,-0.3562 -0.23574,0 -3.48072,5.09269 -7.21106,11.31708 l -6.78244,11.31708 -0.0935,-13.81708 c -0.0809,-11.95342 -0.16517,-13.81708 -0.625,-13.81708 -0.46155,0 -0.53171,1.84542 -0.53291,14.01786 l -0.001,14.01786 -6.87361,-11.50691 c -3.78049,-6.32881 -7.06502,-11.51184 -7.29896,-11.51786 -0.23395,-0.006 -0.52442,0.14934 -0.6455,0.34525 -0.12107,0.19591 3.16408,5.99323 7.30035,12.88293 l 7.52054,12.52674 0,24.43849 0,24.4385 -10.35715,0 c -5.69642,0 -10.357139,0.11946 -10.357139,0.26546 0,0.14601 4.378369,4.64601 9.729709,10 l 9.72971,9.73454 -9.194,0 c -8.955894,0 -9.19399,0.0185 -9.19399,0.71429 0,0.69697 0.238096,0.71428 9.82143,0.71428 l 9.82143,0 0,4.28572 0,4.28571 -15,0 -15.000003,0 0,4.46429 0,4.46428 -4.821429,0 -4.821428,0 0,1.60714 0,1.60715 10.178571,0 10.178569,0 0,-1.60715 0,-1.60714 -4.821426,0 -4.821428,0 0,-3.75 0,-3.75 14.464284,0 14.46429,0 0,9.64286 c 0,8.33333 0.0727,9.64286 0.53571,9.64286 0.46748,0 0.53572,-1.86508 0.53572,-14.64286 z m 90,5 0,-9.64286 14.46428,0 14.46429,0 0,4.10714 0,4.10715 -4.82143,0 -4.82143,0 0,1.42857 0,1.42857 10.17857,0 10.17857,0 0,-1.42857 0,-1.42857 -4.82143,0 -4.82142,0 0,-4.82143 0,-4.82143 -15,0 -15,0 0,-4.28571 0,-4.28572 9.82142,0 c 9.58334,0 9.82143,-0.0173 9.82143,-0.71428 0,-0.69579 -0.23809,-0.71429 -9.19399,-0.71429 l -9.19399,0 9.7297,-9.73454 c 5.35134,-5.35399 9.72971,-9.85399 9.72971,-10 0,-0.146 -4.66071,-0.26546 -10.35714,-0.26546 l -10.35714,0 0,-24.4385 0,-24.43849 7.52049,-12.52674 c 4.13627,-6.8897 7.42143,-12.68702 7.30035,-12.88293 -0.12108,-0.19591 -0.41302,-0.3562 -0.64877,-0.3562 -0.23574,0 -3.48072,5.09269 -7.21106,11.31708 l -6.78244,11.31708 -0.0935,-13.81708 c -0.0809,-11.95342 -0.16517,-13.81708 -0.625,-13.81708 -0.46155,0 -0.53171,1.84542 -0.53291,14.01786 l -10e-4,14.01786 -6.87361,-11.50691 c -3.78049,-6.32881 -7.06502,-11.51184 -7.29896,-11.51786 -0.23395,-0.006 -0.52442,0.14934 -0.6455,0.34525 -0.12107,0.19591 3.16408,5.99323 7.30035,12.88293 l 7.52054,12.52674 0,24.43849 0,24.4385 -10.35715,0 c -5.69642,0 -10.35714,0.11946 -10.35714,0.26546 0,0.14601 4.37837,4.64601 9.72971,10 l 9.72971,9.73454 -9.194,0 c -8.95589,0 -9.19399,0.0185 -9.19399,0.71429 0,0.69697 0.2381,0.71428 9.82143,0.71428 l 9.82143,0 0,14.64286 c 0,12.77778 0.0682,14.64286 0.53571,14.64286 0.46297,0 0.53572,-1.30953 0.53572,-9.64286 z M 18.115149,848.97012 c 0.512954,-0.37509 0.683471,-1.14358 0.832082,-3.75 l 0.186918,-3.27825 -1.388821,-0.0423 c -2.810908,-0.0856 -3.710254,0.52475 -3.710254,2.5182 0,1.94437 0.878471,2.98193 2.376639,2.80703 0.927393,-0.10827 1.171997,-0.0244 1.027411,0.35242 -0.104371,0.27198 -0.189764,0.56172 -0.189764,0.64387 0,0.31881 -1.036243,0.12526 -1.99644,-0.3729 -1.268789,-0.65825 -1.4759,-0.46049 -0.722278,0.68969 0.671339,1.02459 2.476696,1.2423 3.584507,0.43225 z m 56.277068,-0.24253 c 0.602093,-0.6021 0.714286,-1.19048 0.714286,-3.746 0,-2.90047 -0.03479,-3.03251 -0.803572,-3.05005 -0.441964,-0.0101 -1.249021,-0.0287 -1.793464,-0.0413 -0.544439,-0.0126 -1.223225,0.17068 -1.508407,0.40737 -0.75199,0.62409 -1.038515,2.63424 -0.51664,3.62451 0.57594,1.09287 1.014354,1.36476 2.211368,1.37143 0.540179,0.003 0.982143,0.17122 0.982143,0.37382 0,0.70123 -1.155446,0.80745 -2.182668,0.20066 -0.985778,-0.58232 -1.031618,-0.57994 -1.031618,0.0537 0,0.36468 0.192858,0.85591 0.428572,1.09162 0.679071,0.67907 2.700203,0.51408 3.5,-0.28571 z m 191.132593,-0.23393 c 0.53778,-0.48668 0.65312,-1.14202 0.65312,-3.71092 l 0,-3.11986 -1.23009,-0.14361 c -1.35663,-0.15838 -2.70848,0.22472 -3.12936,0.88682 -0.4753,0.74772 -0.30503,2.91741 0.29633,3.77597 0.4569,0.65231 0.83525,0.79785 1.78571,0.68689 1.2818,-0.14964 1.46977,0.0234 0.77741,0.71578 -0.49704,0.49705 -1.71428,0.57734 -1.71428,0.11308 0,-0.17352 -0.32143,-0.39954 -0.71429,-0.50228 -0.87033,-0.22759 -0.95697,0.52407 -0.15306,1.32798 0.73416,0.73416 2.60226,0.7179 3.42851,-0.0299 l 0,10e-6 z m 56.20987,0.0844 c 0.57929,-0.42341 0.71379,-1.03989 0.81807,-3.75 l 0.12482,-3.24329 -1.37482,-0.0423 c -2.07668,-0.0639 -2.39289,0.0201 -3.07125,0.81639 -0.7745,0.90909 -0.80775,2.73465 -0.069,3.78931 0.3915,0.55892 0.91978,0.79375 1.78571,0.79375 0.67636,0 1.22975,0.16576 1.22975,0.36835 0,0.70124 -1.15543,0.80746 -2.18268,0.20066 -0.98575,-0.58231 -1.0316,-0.57993 -1.0316,0.0537 0,0.36468 0.19285,0.8559 0.42857,1.09162 0.58489,0.58489 2.49646,0.5402 3.34246,-0.0781 l 0,0 z M 10.552931,846.65998 c 0.34375,-0.2987 0.625,-0.99663 0.625,-1.55094 0,-1.13675 -0.9142,-1.88099 -2.7919892,-2.27293 -1.299525,-0.27124 -1.8837964,-1.14238 -1.0993393,-1.6391 0.7743607,-0.49032 1.3298643,-0.38803 2.1056143,0.38772 0.9461252,0.94613 1.7779182,0.94018 1.5291962,-0.0109 -0.620614,-2.37324 -5.4689605,-2.26612 -5.4522998,0.12046 0.0085,1.21535 0.4489286,1.65322 2.3454536,2.33175 1.2893679,0.4613 1.7562214,0.8137 1.7562214,1.32566 0,1.04184 -2.1234285,1.18327 -2.7480857,0.18303 -0.2526964,-0.40462 -0.7422178,-0.73568 -1.087825,-0.73568 -0.7435536,0 -0.7523428,0.0514 -0.2115071,1.23846 0.7067821,1.55121 3.5551036,1.90375 5.0295606,0.6225 l 0,0 z m 18.327254,0.56761 1.226318,0 0,-2.03888 c 0,-2.55792 -0.518568,-3.31827 -2.263125,-3.31827 -1.411025,0 -2.379733,0.55572 -2.379733,1.36516 0,0.56679 0.9216,0.66621 1.25,0.13484 0.273672,-0.4428 1.964286,-0.47569 1.964286,-0.0382 0,0.37793 -0.875853,0.7525 -1.759571,0.7525 -0.845615,0 -1.904329,1.22037 -1.750715,2.01803 0.134475,0.69826 1.670722,1.62883 2.174743,1.31733 0.171315,-0.10587 0.863322,-0.1925 1.537797,-0.1925 z m 31.315603,-0.57393 c 1.1979,-1.02882 0.299907,-1.6125 -1.11825,-0.72685 -0.712625,0.44504 -1.828178,0.19956 -1.828178,-0.4023 0,-0.20393 0.797107,-0.36835 1.785714,-0.36835 1.644586,0 1.785714,-0.0674 1.785714,-0.85329 0,-1.35139 -1.137739,-2.48004 -2.5,-2.48004 -1.521939,0 -2.5,1.15818 -2.5,2.9604 0,2.46469 2.459011,3.51598 4.375,1.87043 l 0,0 z m 8.504975,0.5848 c 0.905029,0.0611 0.9141,0.0358 0.779097,-2.17098 -0.178325,-2.9148 -0.214057,-2.99823 -1.379515,-3.22102 -1.524003,-0.29133 -3.324357,0.57683 -3.345517,1.61327 -0.0095,0.46758 1.096053,0.28879 1.651985,-0.26715 0.426136,-0.42613 0.691993,-0.45099 1.306447,-0.12214 0.861482,0.46105 0.82375,0.48843 -1.7139,1.24392 -0.865104,0.25756 -1.093025,0.54185 -1.183572,1.4763 -0.09038,0.93283 0.04817,1.22097 0.714286,1.48544 0.454536,0.18047 1.147857,0.23193 1.540714,0.11436 0.392857,-0.11757 1.126347,-0.18597 1.629975,-0.152 z m 11.839432,-0.76536 c 0.441758,-0.69474 0.321993,-0.9598 -0.433692,-0.9598 -0.392858,0 -0.714286,0.17139 -0.714286,0.38087 0,0.52604 -1.874622,0.26015 -2.055789,-0.29158 -0.104361,-0.31782 0.376417,-0.44643 1.668885,-0.44643 1.757122,0 1.815475,-0.0327 1.815475,-1.01608 0,-2.13265 -2.992746,-3.16936 -4.341368,-1.50388 -1.276921,1.57693 -0.536528,4.45766 1.219511,4.74488 0.964607,0.15778 2.469361,-0.32309 2.841264,-0.90798 l 0,0 z m -67.219407,-1.85266 c 0,-2.14285 -0.107143,-2.67857 -0.535714,-2.67857 -0.428571,0 -0.535714,0.53572 -0.535714,2.67857 0,2.14286 0.107143,2.67858 0.535714,2.67858 0.428571,0 0.535714,-0.53572 0.535714,-2.67858 z m 7.928607,0.62848 c 0.08749,-1.67459 0.230104,-2.07353 0.778597,-2.178 0.921286,-0.17548 1.280878,0.53171 1.287328,2.53167 0.0041,1.28977 0.137797,1.69643 0.5575,1.69643 0.45369,0 0.533218,-0.42785 0.446429,-2.40162 -0.1222,-2.77902 -0.613829,-3.25777 -3.101757,-3.02051 l -1.468132,0.14001 0,2.64106 c 0,2.38043 0.06873,2.64106 0.696464,2.64106 0.597196,0 0.711729,-0.2922 0.803571,-2.0501 z m 10.999965,-1.6999 c 0,-3.51191 -0.04535,-3.75 -0.714286,-3.75 -0.668936,0 -0.714286,0.23809 -0.714286,3.75 0,3.5119 0.04535,3.75 0.714286,3.75 0.668936,0 0.714286,-0.2381 0.714286,-3.75 z m 7.142857,0 c 0,-2.0625 -0.143718,-3.75 -0.319372,-3.75 -0.470725,0 -2.537771,2.00754 -2.537771,2.46471 0,0.52216 0.820693,0.50031 1.357143,-0.0361 0.333332,-0.33333 0.428571,0.18254 0.428571,2.32143 0,2.20635 0.105907,2.75 0.535715,2.75 0.442178,0 0.535714,-0.65476 0.535714,-3.75 z m 6.017914,2.67857 c 0.330472,-0.948 0.536954,-1.07143 1.792275,-1.07143 1.286022,0 1.440789,0.10025 1.654097,1.07143 0.18286,0.83255 0.429128,1.07143 1.1046,1.07143 0.868289,0 0.868625,-0.001 0.296117,-1.33929 -0.315232,-0.73661 -1.000425,-2.42952 -1.52265,-3.76204 -1.314532,-3.35419 -1.943292,-3.20834 -3.516142,0.81561 -1.714025,4.38513 -1.69349,4.28572 -0.885215,4.28572 0.460475,0 0.832411,-0.37004 1.076918,-1.07143 z m 9.168482,-1.44905 c 0.529722,-1.38626 0.872129,-2.61147 0.760911,-2.72269 -0.464968,-0.46497 -1.196739,0.26322 -1.652607,1.64451 -0.539661,1.63519 -0.789104,1.56166 -1.422111,-0.4192 -0.30685,-0.96023 -0.630732,-1.33929 -1.144336,-1.33929 -0.393992,0 -0.662778,0.12716 -0.5973,0.28257 0.06547,0.15541 0.510375,1.36077 0.988665,2.67857 1.171164,3.22683 1.79586,3.20148 3.066778,-0.12447 z m 8.385032,0.54735 c 0,-1.77605 0.08918,-2.00703 0.892858,-2.31259 0.491071,-0.1867 0.892857,-0.48696 0.892857,-0.66723 0,-0.46787 -1.05905,-0.81191 -1.550086,-0.50355 -0.227811,0.14305 -0.69545,0.21383 -1.0392,0.15727 -0.549207,-0.0903 -0.625,0.22473 -0.625,2.5982 0,2.46293 0.06296,2.70103 0.714286,2.70103 0.628093,0 0.714285,-0.2381 0.714285,-1.97313 z m 195.089285,0.82444 c 1.26064,-1.44451 0.52685,-2.9716 -1.69697,-3.53156 -2.0252,-0.50995 -2.65375,-1.18791 -1.61617,-1.7432 0.8769,-0.4693 2.00049,-0.20193 2.2868,0.54419 0.29531,0.76957 1.2942,0.63688 1.2942,-0.17192 0,-0.91712 -1.31832,-1.80597 -2.67857,-1.80597 -1.55732,0 -2.67857,0.89666 -2.67857,2.14204 0,1.17639 0.26236,1.40182 2.49494,2.14368 1.19553,0.39726 1.6122,0.72032 1.6122,1.25 0,1.05761 -2.11631,1.21161 -2.74809,0.19997 -0.50852,-0.81427 -1.7162,-1.00303 -1.7162,-0.26823 0,2.07416 3.93654,2.97113 5.44643,1.241 z m 18.83479,0.68689 c 0.7713,0.2017 0.78159,0.15824 0.53407,-2.25556 -0.13882,-1.35367 -0.37309,-2.59187 -0.52062,-2.75157 -0.33769,-0.36554 -2.09138,-0.42602 -3.09711,-0.10682 -1.02528,0.32541 -1.38625,1.64717 -0.44984,1.64717 0.37447,0 0.68085,-0.16071 0.68085,-0.35714 0,-0.19643 0.48215,-0.35714 1.07143,-0.35714 1.34264,0 1.40435,0.62946 0.0893,0.91077 -2.12864,0.45534 -2.64184,0.83196 -2.52343,1.85183 0.1382,1.19037 1.46843,1.95817 2.62845,1.51713 0.44026,-0.16738 1.15436,-0.21179 1.58691,-0.0987 z m 30.84964,-0.72995 c 0.61911,-0.71751 0.62275,-0.78129 0.0514,-0.89532 -0.33836,-0.0675 -0.791,0.053 -1.00586,0.26786 -0.55268,0.55267 -1.51118,0.48428 -2.0335,-0.14508 -0.38625,-0.46539 -0.181,-0.53571 1.56343,-0.53571 1.87893,0 2.008,-0.0548 2.008,-0.8533 0,-1.32175 -1.13947,-2.48004 -2.43975,-2.48004 -1.64011,0 -2.56139,0.99663 -2.55479,2.76369 0.006,1.73774 0.25672,2.20368 1.43318,2.66875 1.13364,0.44813 2.13932,0.18105 2.97793,-0.79085 l 0,0 z m 8.02743,0.76975 1.306,0.0184 -0.17857,-2.38449 c -0.15782,-2.10756 -0.28225,-2.4334 -1.07143,-2.80566 -1.16429,-0.54922 -2.78014,-0.21751 -3.25404,0.668 -0.5341,0.99798 -0.0986,1.23289 1.03932,0.56067 0.75193,-0.44417 1.13904,-0.48717 1.67672,-0.18625 0.62143,0.34777 0.50171,0.45369 -1.07786,0.9534 -1.60646,0.50822 -1.78775,0.67386 -1.88914,1.72594 -0.0909,0.94285 0.0448,1.22303 0.71428,1.47593 0.45454,0.17168 0.96193,0.23193 1.12758,0.13387 0.1656,-0.0981 0.88882,-0.16998 1.60714,-0.15984 l 0,0 z m 11.931,-0.5805 c 1.19789,-1.02882 0.29989,-1.61251 -1.11825,-0.72685 -0.71261,0.44504 -1.82818,0.19955 -1.82818,-0.4023 0,-0.20393 0.79711,-0.36835 1.78571,-0.36835 1.64458,0 1.78572,-0.0674 1.78572,-0.8533 0,-2.13067 -2.68189,-3.27672 -4.28111,-1.82945 -0.93761,0.84854 -0.99468,3.39893 -0.0939,4.19766 1.15782,1.02668 2.54182,1.02025 3.75,-0.0174 l 0,1e-5 z m -66.875,-2.03322 c 0,-2.44047 -0.0635,-2.67857 -0.71429,-2.67857 -0.65079,0 -0.71428,0.2381 -0.71428,2.67857 0,2.44048 0.0635,2.67857 0.71428,2.67857 0.6508,0 0.71429,-0.23809 0.71429,-2.67857 z m 7.92861,0.625 c 0.0949,-1.81917 0.19882,-2.06659 0.91067,-2.16769 0.75761,-0.1076 0.80358,0.01 0.80358,2.05357 0,1.9296 0.0785,2.16769 0.71428,2.16769 0.63962,0 0.71429,-0.23809 0.71429,-2.2777 0,-2.38076 -0.4038,-3.13262 -1.6679,-3.10553 -0.35944,0.008 -1.17585,0.0275 -1.81425,0.0439 l -1.16071,0.0299 0,2.65468 c 0,2.39394 0.0684,2.65468 0.69646,2.65468 0.59736,0 0.71171,-0.29223 0.80358,-2.05357 z m 10.99996,-1.69643 c 0,-3.5119 -0.0454,-3.75 -0.71429,-3.75 -0.66893,0 -0.71428,0.2381 -0.71428,3.75 0,3.51191 0.0453,3.75 0.71428,3.75 0.66894,0 0.71429,-0.23809 0.71429,-3.75 z m 8.57143,3.21429 c 0,-0.40034 -0.42493,-0.53572 -1.6815,-0.53572 l -1.68151,0 1.50293,-1.53137 c 1.12474,-1.14603 1.50294,-1.81496 1.50294,-2.65832 0,-1.23384 -1.0421,-2.23888 -2.32143,-2.23888 -1.04759,0 -2.32143,0.99099 -2.32143,1.80597 0,0.92907 0.85976,0.8816 1.50011,-0.0828 0.34193,-0.51496 0.72054,-0.69829 1.1231,-0.54381 1.28966,0.49489 1.05653,1.3211 -0.97322,3.44908 -1.10393,1.15735 -2.00713,2.27692 -2.00713,2.48793 0,0.23934 1.00754,0.38365 2.67857,0.38365 2.14285,0 2.67857,-0.10714 2.67857,-0.53571 l 0,0 z m 4.58936,-0.53572 c 0.32271,-0.92575 0.55017,-1.07142 1.67307,-1.07142 1.11603,0 1.35675,0.15133 1.70403,1.07142 0.24082,0.63797 0.66172,1.07143 1.0404,1.07143 0.87607,0 0.7985,-0.42426 -0.7509,-4.10714 -2.08482,-4.95563 -2.37414,-4.7565 -5.31905,3.66071 -0.0913,0.26084 0.14212,0.44643 0.56137,0.44643 0.47618,0 0.84318,-0.3604 1.09108,-1.07143 z m 9.11925,-1.449 c 1.1135,-3.00405 1.09778,-2.83671 0.26639,-2.83671 -0.48639,0 -0.78968,0.43494 -1.11604,1.60066 -0.51689,1.84611 -0.88175,1.7999 -1.47707,-0.18708 -0.30507,-1.01819 -0.61818,-1.41358 -1.1195,-1.41358 -0.40836,0 -0.62646,0.18449 -0.52778,0.44643 0.0925,0.24553 0.533,1.45089 0.97889,2.67857 1.11411,3.06729 1.77489,3.00369 2.99511,-0.28829 l 0,0 z m 8.082,1.35972 c 0.008,-1.86755 0.39189,-2.80061 1.29392,-3.14356 1.658,-0.63038 0.68893,-1.40621 -1.3881,-1.11127 -0.97022,0.13778 -0.98215,0.17155 -0.98215,2.77751 0,2.10682 0.10786,2.63803 0.53572,2.63803 0.36528,0 0.53725,-0.36923 0.54061,-1.16071 l 0,0 z M 13.320788,840.5133 c 0,-0.39682 -0.238096,-0.71428 -0.535714,-0.71428 -0.297618,0 -0.535714,0.31746 -0.535714,0.71428 0,0.39683 0.238096,0.71429 0.535714,0.71429 0.297618,0 0.535714,-0.31746 0.535714,-0.71429 z m 247.500002,-0.35714 c 0,-0.47619 -0.2381,-0.71429 -0.71429,-0.71429 -0.47619,0 -0.71428,0.2381 -0.71428,0.71429 0,0.47619 0.23809,0.71428 0.71428,0.71428 0.47619,0 0.71429,-0.23809 0.71429,-0.71428 z M 147.73737,808.96441 c 0.6191,-0.71751 0.62276,-0.78128 0.0514,-0.89532 -0.33838,-0.0675 -0.79102,0.053 -1.00587,0.26786 -0.55267,0.55267 -1.51117,0.48429 -2.03349,-0.14508 -0.38643,-0.46562 -0.17604,-0.53571 1.60806,-0.53571 l 2.05265,0 -0.23118,-1.15593 c -0.34729,-1.73647 -1.09838,-2.23928 -3.13616,-2.09948 -1.0623,0.0729 -1.7222,1.09395 -1.71647,2.65592 0.006,1.76793 0.25296,2.23204 1.43318,2.69859 1.13364,0.44813 2.13933,0.18105 2.97793,-0.79085 l 0,0 z m 5.41577,-0.004 c 0.28864,-0.4121 0.52479,-0.87421 0.52479,-1.02694 0,-0.52268 -1.35182,-0.27852 -1.56733,0.28309 -0.12908,0.33636 -0.5374,0.51501 -1.02036,0.44643 -0.64764,-0.092 -0.82688,-0.37691 -0.91618,-1.45649 -0.13039,-1.57638 0.55959,-2.05203 1.92028,-1.32381 0.47753,0.25556 0.96868,0.36421 1.09146,0.24143 0.41726,-0.41726 -0.20049,-1.33491 -1.13882,-1.69166 -2.20092,-0.83679 -4.09501,1.79642 -2.97092,4.13026 0.79459,1.64974 3.04627,1.86936 4.07708,0.39767 l 0,2e-5 z m 14.90043,0.1127 c 0.37049,-0.59325 0.42316,-0.58966 0.95467,0.065 0.56177,0.69196 0.81086,0.73994 3.33041,0.64146 l 1.33928,-0.0524 0,-2.03888 c 0,-2.55792 -0.51857,-3.31827 -2.26312,-3.31827 -1.41103,0 -2.37974,0.55572 -2.37974,1.36516 0,0.56679 0.9216,0.66621 1.25,0.13484 0.27368,-0.4428 1.96429,-0.47569 1.96429,-0.0382 0,0.37985 -0.87713,0.7525 -1.77119,0.7525 -0.35275,0 -0.84142,0.24107 -1.08595,0.53571 -0.24454,0.29465 -0.80952,0.53572 -1.25552,0.53572 -0.44601,0 -0.90775,0.25234 -1.0261,0.56076 -0.12908,0.33636 -0.5374,0.51501 -1.02036,0.44643 -0.64764,-0.092 -0.82688,-0.37691 -0.91618,-1.45649 -0.13039,-1.57638 0.55959,-2.05203 1.92028,-1.32381 0.47753,0.25556 0.96868,0.36421 1.09146,0.24143 0.41726,-0.41726 -0.20049,-1.33491 -1.13882,-1.69166 -2.20092,-0.83679 -4.09501,1.79642 -2.97092,4.13026 0.76033,1.57859 3.12121,1.88153 3.97751,0.51037 l 0,2e-5 z m 15.71365,-0.0593 c 1.19645,-1.3837 0.63216,-3.95849 -1.00386,-4.58051 -0.94218,-0.35821 -2.62039,0.0947 -3.09055,0.83417 -0.35062,0.55142 -0.34864,3.15697 0.003,3.70987 0.40029,0.62971 1.93092,1.1541 2.7523,0.94293 0.39286,-0.101 0.99554,-0.50891 1.33929,-0.90646 l -4e-5,0 z m -42.58441,-0.37584 c 0.008,-1.86755 0.39191,-2.80061 1.29394,-3.14356 1.65802,-0.63038 0.68891,-1.4062 -1.3881,-1.11126 -0.9702,0.13777 -0.98215,0.17155 -0.98215,2.7775 0,2.10683 0.10788,2.63804 0.53572,2.63804 0.3653,0 0.53726,-0.36924 0.54059,-1.16072 l 0,0 z m 15.12427,0.625 c -0.11306,-0.29464 -0.34909,-0.53571 -0.5245,-0.53571 -0.17541,0 -0.31893,-0.72322 -0.31893,-1.60715 0,-0.88392 0.16071,-1.60714 0.35714,-1.60714 0.19643,0 0.35714,-0.24107 0.35714,-0.53571 0,-0.29465 -0.16071,-0.53572 -0.35714,-0.53572 -0.19643,0 -0.35714,-0.40178 -0.35714,-0.89285 0,-0.95616 -0.22954,-1.07557 -1.05905,-0.55093 -0.38034,0.24056 -0.50649,0.93841 -0.4617,2.55416 0.0996,3.59444 0.33586,4.24677 1.53791,4.24677 0.77047,0 0.97977,-0.13571 0.82627,-0.53572 z m 1.65657,-2.14286 c 0,-2.14285 -0.10715,-2.67857 -0.53572,-2.67857 -0.42857,0 -0.53571,0.53572 -0.53571,2.67857 0,2.14286 0.10714,2.67858 0.53571,2.67858 0.42857,0 0.53572,-0.53572 0.53572,-2.67858 z m 2.5,0.53572 c 0,-1.66667 0.11904,-2.14286 0.53571,-2.14286 0.29464,0 0.53571,-0.24107 0.53571,-0.53571 0,-0.29465 -0.24107,-0.53572 -0.53571,-0.53572 -0.29464,0 -0.53571,-0.25895 -0.53571,-0.57546 0,-0.46424 0.24158,-0.53014 1.25,-0.34096 1.1062,0.20753 1.25,0.14822 1.25,-0.51553 0,-0.67197 -0.17659,-0.73871 -1.69643,-0.64119 -1.46205,0.0938 -1.7126,0.2229 -1.81342,0.93427 -0.0643,0.45397 -0.34559,0.91313 -0.625,1.02035 -0.57512,0.22069 -0.69801,1.18995 -0.15087,1.18995 0.19842,0 0.35714,0.95238 0.35714,2.14286 0,1.90476 0.0794,2.14286 0.71429,2.14286 0.63492,0 0.71429,-0.2381 0.71429,-2.14286 z m 2.5,-0.53572 c 0,-2.14285 -0.10715,-2.67857 -0.53572,-2.67857 -0.42857,0 -0.53571,0.53572 -0.53571,2.67857 0,2.14286 0.10714,2.67858 0.53571,2.67858 0.42857,0 0.53572,-0.53572 0.53572,-2.67858 z m 13.92857,2.14286 c 0,-0.29464 -0.24107,-0.53571 -0.53572,-0.53571 -0.39682,0 -0.53571,-0.41667 -0.53571,-1.60715 0,-1.19047 0.13889,-1.60714 0.53571,-1.60714 0.29465,0 0.53572,-0.24107 0.53572,-0.53571 0,-0.29465 -0.24107,-0.53572 -0.53572,-0.53572 -0.33794,0 -0.53571,-0.3406 -0.53571,-0.92261 0,-1.11883 -0.83874,-0.99638 -1.00698,0.14702 -0.0628,0.42658 -0.26366,0.77559 -0.44643,0.77559 -0.18277,0 -0.33231,0.24107 -0.33231,0.53572 0,0.29464 0.16072,0.53571 0.35715,0.53571 0.19643,0 0.35714,0.85714 0.35714,1.90476 0,1.04762 0.10714,2.01191 0.2381,2.14286 0.4675,0.46751 1.90476,0.24294 1.90476,-0.29762 z m 1.78571,-2.14286 c 0,-2.44047 -0.0635,-2.67857 -0.71428,-2.67857 -0.6508,0 -0.71429,0.2381 -0.71429,2.67857 0,2.44048 0.0635,2.67858 0.71429,2.67858 0.65079,0 0.71428,-0.2381 0.71428,-2.67858 z m 7.92861,0.625 c 0.0949,-1.81917 0.19883,-2.06659 0.91068,-2.16769 0.7576,-0.1076 0.80357,0.01 0.80357,2.05357 0,1.9296 0.0785,2.1677 0.71428,2.1677 0.63231,0 0.71429,-0.2381 0.71429,-2.0746 0,-2.26365 -0.51596,-3.32002 -1.61404,-3.30458 -0.38907,0.005 -1.22971,0.0234 -1.8681,0.0399 l -1.16072,0.0299 0,2.65468 c 0,2.39395 0.0684,2.65469 0.69647,2.65469 0.59735,0 0.7117,-0.29223 0.80357,-2.05358 z m -28.64289,-4.73214 c 0,-0.39682 -0.2381,-0.71428 -0.53572,-0.71428 -0.29762,0 -0.53571,0.31746 -0.53571,0.71428 0,0.39683 0.23809,0.71429 0.53571,0.71429 0.29762,0 0.53572,-0.31746 0.53572,-0.71429 z m 20.71428,0 c 0,-0.47619 -0.2381,-0.71428 -0.71428,-0.71428 -0.47619,0 -0.71429,0.23809 -0.71429,0.71428 0,0.47619 0.2381,0.71429 0.71429,0.71429 0.47618,0 0.71428,-0.2381 0.71428,-0.71429 z m -1.42857,-4.61897 c 0,-0.94466 0.11097,-1.04439 1.12992,-1.01541 2.11292,0.0601 3.28249,-2.9422 1.81651,-4.66297 -0.67636,-0.79391 -0.99923,-0.88073 -3.03572,-0.81639 l -1.33928,0.0423 0,3.75 c 0,3.51191 0.0454,3.75 0.71428,3.75 0.55194,0 0.71429,-0.23809 0.71429,-1.04754 z m -35.88257,-1.93267 c 1.13188,-1.61599 0.2726,-4.34564 -1.43886,-4.57076 -2.45343,-0.32271 -3.48436,1.11132 -2.89987,4.03376 0.33879,1.69392 3.27394,2.05721 4.33873,0.537 l 0,0 z m 5.88257,-2.95016 c 0,-3.47439 -0.0458,-3.71248 -0.71429,-3.71248 -0.55193,0 -0.71428,0.23809 -0.71428,1.04754 0,0.94466 -0.11097,1.04438 -1.12993,1.01541 -1.37689,-0.0391 -2.4415,1.1133 -2.4415,2.64295 0,2.21846 1.09331,3.09164 3.57477,2.85499 l 1.42523,-0.13592 0,-3.71249 z m 5.08929,3.14216 c 1.1979,-1.02882 0.2999,-1.6125 -1.11825,-0.72685 -0.71263,0.44504 -1.82818,0.19956 -1.82818,-0.4023 0,-0.20393 0.7971,-0.36835 1.78571,-0.36835 1.64459,0 1.78572,-0.0674 1.78572,-0.85329 0,-1.35139 -1.13774,-2.48004 -2.5,-2.48004 -1.52194,0 -2.5,1.15818 -2.5,2.9604 0,2.46469 2.45901,3.51598 4.375,1.87043 l 0,0 z m 5.17857,0.20077 c 0.24553,-0.19644 0.44643,-0.74498 0.44643,-1.21898 0,-0.68251 -0.35297,-1.02123 -1.69643,-1.628 -1.47369,-0.66558 -1.5845,-0.78525 -0.84396,-0.91141 0.46885,-0.0799 0.97495,0.053 1.12467,0.2952 0.14971,0.24224 0.53642,0.33904 0.85936,0.21512 0.45362,-0.17407 0.50489,-0.37904 0.22544,-0.9012 -0.41225,-0.77029 -1.5768,-1.07992 -2.88337,-0.76661 -0.73312,0.17579 -0.89286,0.42915 -0.89286,1.41613 0,1.05148 0.15387,1.25384 1.22844,1.61565 0.67564,0.22749 1.28512,0.58363 1.35438,0.79143 0.20809,0.62427 -0.91607,0.83156 -1.47554,0.27208 -0.5569,-0.55689 -1.64299,-0.71003 -1.64299,-0.23166 0,0.54683 0.89416,1.43688 1.60714,1.59975 0.84009,0.19192 1.96144,-0.0452 2.58929,-0.5475 l 0,0 z m 10.89285,-0.18872 c 0.90117,-0.79134 0.84401,-3.3435 -0.0939,-4.19229 -0.9217,-0.83413 -2.64051,-0.83413 -3.56221,0 -0.50254,0.45479 -0.7189,1.10096 -0.7189,2.14702 0,2.64948 2.40603,3.77426 4.375,2.04527 z m 17.75479,-0.93422 c 0.76836,-2.32815 -0.66594,-4.15058 -3.02264,-3.84059 -1.72184,0.22648 -2.56962,2.95638 -1.42543,4.58994 1.10618,1.5793 3.83104,1.12025 4.44807,-0.74935 z m 12.42379,0.91796 c 0.63492,-0.79415 0.55429,-1.13615 -0.26786,-1.13615 -0.39286,0 -0.71429,0.17139 -0.71429,0.38087 0,0.52604 -1.87462,0.26015 -2.05579,-0.29158 -0.10436,-0.31782 0.37642,-0.44643 1.66889,-0.44643 1.75712,0 1.81547,-0.0327 1.81547,-1.01608 0,-2.11685 -3.02407,-3.13067 -4.37221,-1.46578 -0.77018,0.95112 -0.81274,2.77315 -0.0889,3.80654 0.84518,1.20666 3.10878,1.30173 4.01472,0.16861 z m -65.81143,-0.15401 c 1.19007,-1.03403 1.50305,-2.91824 0.77441,-4.66212 -0.64453,-1.54259 -1.65553,-2.0343 -4.18266,-2.0343 l -1.76247,0 0,3.75 0,3.75 2.12295,0 c 1.68945,0 2.31178,-0.16409 3.04777,-0.80358 l 0,0 z m 3.40071,-1.875 c 0,-2.44047 -0.0635,-2.67857 -0.71428,-2.67857 -0.6508,0 -0.71429,0.2381 -0.71429,2.67857 0,2.44048 0.0635,2.67858 0.71429,2.67858 0.65079,0 0.71428,-0.2381 0.71428,-2.67858 z m 26.78572,0.53572 c 0,-1.66667 0.11904,-2.14286 0.53571,-2.14286 0.29464,0 0.53571,-0.24107 0.53571,-0.53571 0,-0.29465 -0.24107,-0.53572 -0.53571,-0.53572 -0.29464,0 -0.53571,-0.24107 -0.53571,-0.53571 0,-0.29762 0.31746,-0.53572 0.71428,-0.53572 0.40969,0 0.71429,-0.23809 0.71429,-0.55834 0,-0.41478 -0.29844,-0.52957 -1.16072,-0.44643 -0.89983,0.0868 -1.187,0.29744 -1.2777,0.93733 -0.0643,0.45397 -0.34559,0.91313 -0.625,1.02035 -0.57512,0.22069 -0.69801,1.18995 -0.15087,1.18995 0.19842,0 0.35714,0.95238 0.35714,2.14286 0,1.90476 0.0794,2.14286 0.71429,2.14286 0.63492,0 0.71429,-0.2381 0.71429,-2.14286 z m 8.28575,0.0893 c 0.0949,-1.81917 0.19882,-2.06659 0.91067,-2.16769 0.44197,-0.0628 0.80358,-0.34402 0.80358,-0.625 0,-0.49295 -0.50675,-0.69647 -1.25,-0.50203 -0.19643,0.0514 -0.71875,0.0722 -1.16072,0.0463 -0.76599,-0.0449 -0.80357,0.0779 -0.80357,2.62743 0,2.41367 0.0679,2.67458 0.69646,2.67458 0.59736,0 0.71171,-0.29223 0.80358,-2.05358 z m 18.34569,0.79963 c 0.33417,-1.78127 0.76489,-1.84519 1.05029,-0.15586 0.20499,1.21331 0.36845,1.43245 1.00009,1.3408 0.5989,-0.0869 0.91758,-0.64504 1.54095,-2.69885 0.73693,-2.42792 0.74624,-2.58929 0.14941,-2.58929 -0.45273,0 -0.77086,0.47991 -1.1019,1.66223 l -0.46539,1.66223 -0.48468,-1.66223 c -0.35505,-1.21764 -0.66445,-1.66223 -1.15677,-1.66223 -0.50578,0 -0.73181,0.3535 -0.91344,1.42857 -0.29875,1.76829 -0.73714,1.83492 -1.05139,0.1598 -0.21584,-1.1505 -1.01979,-1.95766 -1.48577,-1.49169 -0.10171,0.10171 0.16195,1.32692 0.5859,2.72269 0.59472,1.95799 0.92237,2.53778 1.43414,2.53778 0.47572,0 0.72985,-0.35466 0.89856,-1.25395 l 0,0 z m 11.65431,-0.79963 c 0.0949,-1.81917 0.19882,-2.06659 0.91067,-2.16769 0.82599,-0.11731 1.11438,-0.97275 0.40739,-1.20841 -0.2179,-0.0726 -0.94111,-0.0684 -1.60714,0.009 l -1.21096,0.14136 0,2.6395 c 0,2.37889 0.0688,2.6395 0.69646,2.6395 0.59736,0 0.71171,-0.29223 0.80358,-2.05358 z m -65.07147,-4.73214 c 0,-0.47619 -0.2381,-0.71428 -0.71428,-0.71428 -0.47619,0 -0.71429,0.23809 -0.71429,0.71428 0,0.47619 0.2381,0.71429 0.71429,0.71429 0.47618,0 0.71428,-0.2381 0.71428,-0.71429 z m -1.01026,-61.66249 c 0.53778,-0.48669 0.65312,-1.14203 0.65312,-3.71093 l 0,-3.11986 -1.33929,-0.16505 c -2.47249,-0.30469 -3.44897,0.58195 -3.37829,3.06751 0.0431,1.51623 1.06486,2.46417 2.4782,2.29917 1.2454,-0.14539 1.42756,0.032 0.73938,0.72022 -0.49705,0.49705 -1.71429,0.57734 -1.71429,0.11309 0,-0.17352 -0.32143,-0.39955 -0.71428,-0.50228 -0.52489,-0.13726 -0.71429,-0.011 -0.71429,0.47631 0,1.35502 2.77006,1.92561 3.98974,0.82182 z m 110,0 c 0.53778,-0.48669 0.65312,-1.14203 0.65312,-3.71093 l 0,-3.11986 -1.33929,-0.16505 c -2.47249,-0.30469 -3.44896,0.58195 -3.37829,3.06751 0.0431,1.51623 1.06486,2.46417 2.4782,2.29917 1.2454,-0.14539 1.42756,0.032 0.73938,0.72022 -0.49705,0.49705 -1.71429,0.57734 -1.71429,0.11309 0,-0.17352 -0.32143,-0.39955 -0.71428,-0.50228 -0.52488,-0.13726 -0.71429,-0.011 -0.71429,0.47631 0,1.35502 2.77006,1.92561 3.98974,0.82182 z M 84.660074,726.84656 c 0.688286,-0.53852 0.528622,-1.33326 -0.267857,-1.33326 -0.392857,0 -0.714286,0.17139 -0.714286,0.38087 0,0.52604 -1.874621,0.26015 -2.055789,-0.29158 -0.104361,-0.31782 0.376418,-0.44643 1.668886,-0.44643 1.76926,0 1.815475,-0.0266 1.815475,-1.04592 0,-1.65719 -0.985793,-2.36771 -3.035715,-2.188 -1.70641,0.14959 -2.572832,2.92045 -1.425428,4.5586 0.771621,1.10164 2.834007,1.28952 4.014714,0.36572 z m 15.970786,0.38329 1.12642,0.0423 -0.13558,-2.21873 c -0.17717,-2.89927 -0.21374,-2.98434 -1.3785,-3.207 -1.524001,-0.29133 -3.324354,0.57683 -3.345515,1.61327 -0.0095,0.46757 1.096053,0.28878 1.651986,-0.26715 0.426135,-0.42613 0.691992,-0.45099 1.306446,-0.12214 0.754433,0.40375 0.755853,0.41893 0.06448,0.6881 -0.388825,0.15138 -1.1558,0.37185 -1.704389,0.48993 -1.139954,0.24536 -1.496114,0.88757 -1.18335,2.13372 0.207221,0.82563 1.381175,1.35513 2.147614,0.96867 0.178186,-0.0898 0.830858,-0.1443 1.450388,-0.12101 l 0,0 z m 45.35715,0 1.12642,0.0423 -0.13558,-2.21873 c -0.17717,-2.89927 -0.21374,-2.98434 -1.3785,-3.207 -1.52401,-0.29133 -3.32436,0.57683 -3.34552,1.61327 -0.01,0.46757 1.09605,0.28878 1.65198,-0.26715 0.42614,-0.42613 0.692,-0.45099 1.30645,-0.12214 0.86139,0.461 0.83048,0.48347 -1.7139,1.24608 -0.91988,0.2757 -1.07143,0.49444 -1.07143,1.54642 0,1.00817 0.15822,1.26565 0.89286,1.453 0.49107,0.12524 1.03864,0.14757 1.21683,0.0496 0.17818,-0.0979 0.83086,-0.15901 1.45039,-0.13572 l 0,0 z m 48.67206,-0.38329 c 0.68829,-0.53852 0.52863,-1.33326 -0.26785,-1.33326 -0.39286,0 -0.71429,0.17139 -0.71429,0.38087 0,0.52604 -1.87462,0.26015 -2.05579,-0.29158 -0.10436,-0.31782 0.37642,-0.44643 1.66889,-0.44643 1.76926,0 1.81547,-0.0266 1.81547,-1.04592 0,-1.65719 -0.98579,-2.36771 -3.03571,-2.188 -1.70641,0.14959 -2.57283,2.92045 -1.42543,4.5586 0.77162,1.10164 2.83401,1.28952 4.01471,0.36572 z m 15.97079,0.38329 1.12642,0.0423 -0.13558,-2.21873 c -0.17717,-2.89927 -0.21374,-2.98434 -1.3785,-3.207 -1.524,-0.29133 -3.32435,0.57683 -3.34552,1.61327 -0.01,0.46757 1.09606,0.28878 1.65199,-0.26715 0.42614,-0.42613 0.69199,-0.45099 1.30645,-0.12214 0.75443,0.40375 0.75585,0.41893 0.0645,0.6881 -0.38883,0.15138 -1.1558,0.37185 -1.70439,0.48993 -1.13995,0.24536 -1.49611,0.88757 -1.18335,2.13372 0.20722,0.82563 1.38117,1.35513 2.14761,0.96867 0.17819,-0.0898 0.83086,-0.1443 1.45039,-0.12101 l 0,0 z m 45.35715,0 1.12642,0.0423 -0.13558,-2.21873 c -0.17717,-2.89927 -0.21374,-2.98434 -1.3785,-3.207 -1.52401,-0.29133 -3.32436,0.57683 -3.34552,1.61327 -0.01,0.46757 1.09605,0.28878 1.65198,-0.26715 0.42614,-0.42613 0.692,-0.45099 1.30645,-0.12214 0.86139,0.461 0.83048,0.48347 -1.7139,1.24608 -0.91988,0.2757 -1.07143,0.49444 -1.07143,1.54642 0,1.00817 0.15822,1.26565 0.89286,1.453 0.49107,0.12524 1.03864,0.14757 1.21683,0.0496 0.17818,-0.0979 0.83086,-0.15901 1.45039,-0.13572 l 0,0 z M 73.392253,725.24544 c 0.100339,-1.92381 0.163521,-2.05357 0.999964,-2.05357 0.836443,0 0.899625,0.12976 0.999964,2.05357 0.07859,1.50665 0.245039,2.05358 0.625,2.05358 0.399122,0 0.517893,-0.5305 0.517893,-2.3132 0,-2.01237 -0.1045,-2.37833 -0.803571,-2.81405 -0.488961,-0.30476 -1.327925,-0.43252 -2.142858,-0.3263 l -1.339285,0.17455 0,2.6395 c 0,2.06775 0.112182,2.6395 0.517893,2.6395 0.37996,0 0.546414,-0.54693 0.625,-2.05358 z m 13.928571,0 c 0.100339,-1.92381 0.163522,-2.05357 0.999964,-2.05357 0.836443,0 0.899625,0.12976 0.999965,2.05357 0.08017,1.537 0.241489,2.05358 0.641318,2.05358 0.431692,0 0.513946,-0.46089 0.428607,-2.40162 -0.1222,-2.77902 -0.613829,-3.25777 -3.101757,-3.02051 l -1.468133,0.14001 0,2.64106 c 0,2.38043 0.06873,2.64106 0.696465,2.64106 0.597353,0 0.711703,-0.29223 0.803571,-2.05358 z m 5.285679,0.82683 c 0,-1.81708 0.576385,-3.05897 1.419732,-3.05897 0.645725,0 0.723125,0.22937 0.723125,2.14286 0,1.90476 0.07936,2.14286 0.714286,2.14286 0.63231,0 0.714285,-0.2381 0.714285,-2.0746 0,-2.26365 -0.515957,-3.32002 -1.614043,-3.30458 -0.389064,0.005 -1.229707,0.0234 -1.8681,0.0399 l -1.160714,0.0299 0,2.65468 c 0,2.12163 0.107572,2.65469 0.535714,2.65469 0.372215,0 0.535715,-0.3744 0.535715,-1.22675 l 0,0 z m 37.857147,-1.45183 c 0,-2.44047 -0.0635,-2.67857 -0.71429,-2.67857 -0.65079,0 -0.71429,0.2381 -0.71429,2.67857 0,2.44048 0.0635,2.67858 0.71429,2.67858 0.65079,0 0.71429,-0.2381 0.71429,-2.67858 z m 7.50487,1.33929 c 0.008,-2.19485 0.33623,-2.94643 1.28678,-2.94643 0.80226,0 0.8512,0.1232 0.8512,2.14286 0,1.90476 0.0794,2.14286 0.71429,2.14286 0.63231,0 0.71428,-0.2381 0.71428,-2.0746 0,-2.26365 -0.51595,-3.32002 -1.61404,-3.30458 -0.38906,0.005 -1.22971,0.0234 -1.8681,0.0399 l -1.16071,0.0299 0,2.65468 c 0,2.12163 0.10757,2.65469 0.53571,2.65469 0.38009,0 0.53713,-0.38908 0.54059,-1.33929 z m 45.42373,-0.71429 c 0.10034,-1.92381 0.16352,-2.05357 0.99997,-2.05357 0.83644,0 0.89962,0.12976 0.99996,2.05357 0.0786,1.50665 0.24504,2.05358 0.625,2.05358 0.39912,0 0.51789,-0.5305 0.51789,-2.3132 0,-2.01237 -0.1045,-2.37833 -0.80357,-2.81405 -0.48896,-0.30476 -1.32792,-0.43252 -2.14285,-0.3263 l -1.33929,0.17455 0,2.6395 c 0,2.06775 0.11218,2.6395 0.51789,2.6395 0.37996,0 0.54642,-0.54693 0.625,-2.05358 z m 13.92857,0 c 0.10034,-1.92381 0.16353,-2.05357 0.99997,-2.05357 0.83644,0 0.89962,0.12976 0.99996,2.05357 0.0802,1.537 0.24149,2.05358 0.64132,2.05358 0.43169,0 0.51395,-0.46089 0.42861,-2.40162 -0.1222,-2.77902 -0.61383,-3.25777 -3.10176,-3.02051 l -1.46813,0.14001 0,2.64106 c 0,2.38043 0.0687,2.64106 0.69646,2.64106 0.59736,0 0.71171,-0.29223 0.80357,-2.05358 z m 5.28568,0.82683 c 0,-1.81708 0.57639,-3.05897 1.41973,-3.05897 0.64573,0 0.72313,0.22937 0.72313,2.14286 0,1.90476 0.0794,2.14286 0.71429,2.14286 0.63231,0 0.71428,-0.2381 0.71428,-2.0746 0,-2.26365 -0.51596,-3.32002 -1.61404,-3.30458 -0.38907,0.005 -1.22971,0.0234 -1.8681,0.0399 l -1.16072,0.0299 0,2.65468 c 0,2.12163 0.10758,2.65469 0.53572,2.65469 0.37221,0 0.53571,-0.3744 0.53571,-1.22675 l 0,0 z m 37.85715,-1.45183 c 0,-2.44047 -0.0635,-2.67857 -0.71429,-2.67857 -0.65079,0 -0.71429,0.2381 -0.71429,2.67857 0,2.44048 0.0635,2.67858 0.71429,2.67858 0.65079,0 0.71429,-0.2381 0.71429,-2.67858 z m 7.50487,1.33929 c 0.008,-2.19485 0.33623,-2.94643 1.28678,-2.94643 0.80226,0 0.8512,0.1232 0.8512,2.14286 0,1.90476 0.0794,2.14286 0.71429,2.14286 0.63231,0 0.71428,-0.2381 0.71428,-2.0746 0,-2.26365 -0.51595,-3.32002 -1.61404,-3.30458 -0.38906,0.005 -1.22971,0.0234 -1.8681,0.0399 l -1.16071,0.0299 0,2.65468 c 0,2.12163 0.10757,2.65469 0.53571,2.65469 0.38009,0 0.53713,-0.38908 0.54059,-1.33929 z m -129.29059,-1.16071 c 0,-0.64626 -0.2381,-0.71429 -2.5,-0.71429 -2.2619,0 -2.5,0.068 -2.5,0.71429 0,0.64625 0.2381,0.71428 2.5,0.71428 2.2619,0 2.5,-0.068 2.5,-0.71428 z m 110,0 c 0,-0.64626 -0.23809,-0.71429 -2.5,-0.71429 -2.2619,0 -2.5,0.068 -2.5,0.71429 0,0.64625 0.2381,0.71428 2.5,0.71428 2.26191,0 2.5,-0.068 2.5,-0.71428 z m -110,-2.32143 c 0,-0.42517 -0.51587,-0.53572 -2.5,-0.53572 -1.98413,0 -2.5,0.11055 -2.5,0.53572 0,0.42517 0.51587,0.53571 2.5,0.53571 1.98413,0 2.5,-0.11054 2.5,-0.53571 z m 110,0 c 0,-0.42517 -0.51587,-0.53572 -2.5,-0.53572 -1.98413,0 -2.5,0.11055 -2.5,0.53572 0,0.42517 0.51587,0.53571 2.5,0.53571 1.98413,0 2.5,-0.11054 2.5,-0.53571 z"
       id="path4035"
       inkscape:connector-curvature="0" />
    <path
       style="fill:#0a0808;fill-opacity:0"
       d="m -64.536355,878.0133 0,-156.78571 65.7142861,0 c 36.1428569,0 65.7142859,0.0762 65.7142859,0.16927 0,0.0931 -0.482143,1.383 -1.071429,2.86644 -0.589285,1.48344 -1.071428,2.77334 -1.071428,2.86644 0,0.0931 0.305707,0.16928 0.679346,0.16928 0.433736,0 0.814386,-0.38737 1.052854,-1.07143 0.330471,-0.94799 0.536953,-1.07143 1.792275,-1.07143 1.286021,0 1.440789,0.10025 1.654096,1.07143 0.179797,0.8186 0.432754,1.07143 1.071993,1.07143 l 0.836668,0 -1.189282,-2.94643 -1.189282,-2.94643 4.122014,-0.10103 c 3.737175,-0.0916 5.303364,0.11268 4.115746,0.53683 -0.51915,0.18541 -0.609303,1.17134 -0.107107,1.17134 0.186625,0 0.387518,0.92411 0.446429,2.05357 0.101393,1.94404 0.159493,2.0596 1.08925,2.16658 1.03521,0.11912 1.36316,-0.52493 0.446428,-0.87671 -0.611703,-0.23473 -0.777739,-3.34344 -0.178571,-3.34344 0.196428,0 0.357143,-0.24107 0.357143,-0.53571 0,-0.29465 -0.160715,-0.53572 -0.357143,-0.53572 -0.196429,0 -0.357143,-0.16071 -0.357143,-0.35714 0,-0.23244 4.832393,-0.3473 13.839286,-0.32895 7.61161,0.0155 13.63839,0.10926 13.39286,0.20834 -0.24554,0.0991 -0.44643,0.42524 -0.44643,0.7248 0,0.40265 0.23282,0.48624 0.89286,0.32058 0.88886,-0.22309 0.89285,-0.21288 0.89285,2.28271 0,2.26871 0.0679,2.50681 0.71429,2.50681 0.65826,0 0.71428,-0.2381 0.71428,-3.03572 l 0,-3.03571 6.78572,0 6.78571,0 0,0.84912 c 0,1.05729 0.47525,1.45312 2.44789,2.03881 1.64669,0.4889 2.27118,1.26138 1.44344,1.7855 -0.85741,0.54291 -2.08082,0.35658 -2.54564,-0.38772 -0.50791,-0.81328 -1.70283,-0.96636 -1.70283,-0.21814 0,0.27289 0.28602,0.84937 0.6356,1.28108 0.93097,1.1497 3.8562,1.16583 4.77889,0.0264 1.26006,-1.5561 0.64767,-2.87928 -1.66449,-3.59643 -1.6678,-0.5173 -2.39249,-1.01753 -2.11785,-1.46191 0.3338,-0.54008 2.55861,-0.36496 2.78272,0.21904 0.11306,0.29464 0.45168,0.53572 0.75249,0.53572 0.30081,0 0.54693,-0.24108 0.54693,-0.53572 0,-0.46343 1.3492,-0.53571 10,-0.53571 l 10,0 0,3.03571 c 0,2.79762 0.056,3.03572 0.71428,3.03572 0.65827,0 0.71429,-0.2381 0.71429,-3.03572 l 0,-3.03571 2.41071,0.0282 c 1.32589,0.0155 2.20982,0.10926 1.96429,0.20834 -0.24554,0.0991 -0.44643,0.42524 -0.44643,0.7248 0,0.40265 0.23282,0.48624 0.89286,0.32058 0.88886,-0.22309 0.89285,-0.21288 0.89285,2.28271 0,2.26871 0.0678,2.50681 0.71429,2.50681 0.65826,0 0.71428,-0.2381 0.71428,-3.03572 l 0,-3.03571 10.17858,0 c 5.59821,0 10.17857,0.0762 10.17857,0.16927 0,0.0931 -0.48215,1.383 -1.07143,2.86644 -0.58929,1.48344 -1.07143,2.77334 -1.07143,2.86644 0,0.0931 0.30571,0.16928 0.67935,0.16928 0.43373,0 0.81438,-0.38737 1.05285,-1.07143 0.33047,-0.94799 0.53695,-1.07143 1.79227,-1.07143 1.28603,0 1.44079,0.10025 1.6541,1.07143 0.1798,0.8186 0.43275,1.07143 1.07199,1.07143 l 0.83667,0 -1.18928,-2.94643 -1.18928,-2.94643 4.12201,-0.10103 c 3.73718,-0.0916 5.30337,0.11268 4.11575,0.53683 -0.51915,0.18541 -0.60931,1.17134 -0.10711,1.17134 0.18663,0 0.38752,0.92411 0.44643,2.05357 0.10139,1.94404 0.15949,2.0596 1.08925,2.16658 1.03521,0.11912 1.36316,-0.52493 0.44643,-0.87671 -0.61171,-0.23473 -0.77774,-3.34344 -0.17857,-3.34344 0.19643,0 0.35714,-0.24107 0.35714,-0.53571 0,-0.29465 -0.16071,-0.53572 -0.35714,-0.53572 -0.19643,0 -0.35715,-0.16071 -0.35715,-0.35714 0,-0.23168 4.6556,-0.35714 13.2525,-0.35714 11.63327,0 13.22738,0.0655 13.04692,0.53571 -0.13736,0.35797 0.015,0.53572 0.4593,0.53572 0.36567,0 0.75737,-0.24108 0.87044,-0.53572 0.27384,-0.71363 1.87933,-0.68672 2.15673,0.0362 0.14871,0.38753 -0.4146,1.20591 -1.74751,2.53882 -2.64388,2.64388 -2.58683,2.96074 0.53305,2.96074 1.98413,0 2.5,-0.11055 2.5,-0.53572 0,-0.39713 -0.41736,-0.53571 -1.61341,-0.53571 l -1.61342,0 1.61342,-1.54593 c 1.12469,-1.07764 1.61341,-1.83492 1.61341,-2.5 l 0,-0.95407 6.25,0 6.25,0 0,0.84912 c 0,1.05729 0.47525,1.45312 2.44789,2.03881 1.64669,0.4889 2.27118,1.26138 1.44344,1.7855 -0.85741,0.54291 -2.08082,0.35658 -2.54564,-0.38772 -0.5079,-0.81328 -1.70283,-0.96636 -1.70283,-0.21814 0,0.27289 0.28602,0.84937 0.6356,1.28108 0.93097,1.1497 3.8562,1.16583 4.77889,0.0264 1.26006,-1.5561 0.64767,-2.87928 -1.66449,-3.59643 -1.6678,-0.5173 -2.39249,-1.01753 -2.11785,-1.46191 0.3338,-0.54008 2.55861,-0.36496 2.78272,0.21904 0.26713,0.69613 1.29942,0.69613 1.29942,0 0,-0.46343 1.3492,-0.53571 10,-0.53571 l 10,0 0,3.03571 c 0,2.79762 0.056,3.03572 0.71428,3.03572 0.65827,0 0.71429,-0.2381 0.71429,-3.03572 l 0,-3.03571 1.78571,0 c 1.34921,0 1.78572,0.13095 1.78572,0.53571 0,0.70841 0.93584,0.68991 1.20976,-0.0239 0.24978,-0.65092 2.04763,-0.5782 2.26744,0.0917 0.0767,0.23372 -0.75467,1.3975 -1.84746,2.58618 -1.09279,1.18868 -1.98689,2.32335 -1.98689,2.52148 0,0.20792 1.05708,0.36025 2.5,0.36025 1.98413,0 2.5,-0.11055 2.5,-0.53572 0,-0.38966 -0.40188,-0.53571 -1.47405,-0.53571 l -1.47406,0 1.47406,-1.59917 c 0.91505,-0.99271 1.47405,-1.94078 1.47405,-2.5 l 0,-0.90083 95,0 95,0 0,156.78571 0,156.78568 -261.07143,0 -261.071425,0 0,-156.78568 z m 155.156311,-5.33484 c 4.361854,-4.37022 4.909715,-5.04813 4.489186,-5.55484 -0.4279,-0.51558 -0.701182,-0.35726 -2.562243,1.48438 l -2.083253,2.06151 0,-3.64953 0,-3.64954 4.821428,0 4.821426,0 0,-1.60714 0,-1.60714 -10.178569,0 -10.178571,0 0,1.60714 0,1.60714 4.821428,0 4.821429,0 0,4.18803 0,4.18804 -2.543811,2.5609 c -2.323332,2.33894 -2.813875,3.34875 -1.626757,3.34875 0.236575,0 2.665814,-2.23997 5.398307,-4.9777 l 0,0 z m 150.000004,0 c 4.36185,-4.37022 4.90971,-5.04813 4.48918,-5.55484 -0.4279,-0.51558 -0.70118,-0.35726 -2.56224,1.48438 l -2.08325,2.06151 0,-3.47096 0,-3.47096 4.82142,0 4.82143,0 0,-1.60715 0,-1.60714 -10.17857,0 -10.17857,0 0,1.60714 0,1.60715 4.82143,0 4.82143,0 0,4.00945 0,4.00947 -2.54381,2.5609 c -2.32334,2.33894 -2.81388,3.34875 -1.62676,3.34875 0.23657,0 2.66581,-2.23997 5.39831,-4.9777 z m -120.15631,-20.0223 0,-14.64286 9.82142,0 c 9.58334,0 9.82143,-0.0173 9.82143,-0.71428 0,-0.69579 -0.23809,-0.71429 -9.19399,-0.71429 l -9.19399,0 9.7297,-9.73454 c 5.35134,-5.35399 9.72971,-9.85399 9.72971,-10 0,-0.146 -4.66071,-0.26546 -10.35714,-0.26546 l -10.35714,0 0,-24.4385 0,-24.43849 7.52049,-12.52674 c 4.13627,-6.8897 7.42143,-12.68702 7.30035,-12.88293 -0.12108,-0.19591 -0.41302,-0.3562 -0.64877,-0.3562 -0.23574,0 -3.48072,5.09269 -7.21106,11.31708 l -6.78244,11.31708 -0.0935,-13.81708 c -0.0809,-11.95342 -0.16517,-13.81708 -0.625,-13.81708 -0.46155,0 -0.53171,1.84542 -0.53291,14.01786 l -0.001,14.01786 -6.87361,-11.50691 c -3.78049,-6.32881 -7.06502,-11.51184 -7.29896,-11.51786 -0.23395,-0.006 -0.52442,0.14934 -0.6455,0.34525 -0.12107,0.19591 3.16408,5.99323 7.30035,12.88293 l 7.52054,12.52674 0,24.43849 0,24.4385 -10.35715,0 c -5.69642,0 -10.357139,0.11946 -10.357139,0.26546 0,0.14601 4.378369,4.64601 9.729709,10 l 9.72971,9.73454 -9.194,0 c -8.955894,0 -9.19399,0.0185 -9.19399,0.71429 0,0.69697 0.238096,0.71428 9.82143,0.71428 l 9.82143,0 0,4.28572 0,4.28571 -15,0 -15.000003,0 0,4.46429 0,4.46428 -4.821429,0 -4.821428,0 0,1.60714 0,1.60715 10.178571,0 10.178569,0 0,-1.60715 0,-1.60714 -4.821426,0 -4.821428,0 0,-3.75 0,-3.75 14.464284,0 14.46429,0 0,9.64286 c 0,8.33333 0.0727,9.64286 0.53571,9.64286 0.46748,0 0.53572,-1.86508 0.53572,-14.64286 z m 90,5 0,-9.64286 14.46428,0 14.46429,0 0,4.10714 0,4.10715 -4.82143,0 -4.82143,0 0,1.42857 0,1.42857 10.17857,0 10.17857,0 0,-1.42857 0,-1.42857 -4.82143,0 -4.82142,0 0,-4.82143 0,-4.82143 -15,0 -15,0 0,-4.28571 0,-4.28572 9.82142,0 c 9.58334,0 9.82143,-0.0173 9.82143,-0.71428 0,-0.69579 -0.23809,-0.71429 -9.19399,-0.71429 l -9.19399,0 9.7297,-9.73454 c 5.35134,-5.35399 9.72971,-9.85399 9.72971,-10 0,-0.146 -4.66071,-0.26546 -10.35714,-0.26546 l -10.35714,0 0,-24.4385 0,-24.43849 7.52049,-12.52674 c 4.13627,-6.8897 7.42143,-12.68702 7.30035,-12.88293 -0.12108,-0.19591 -0.41302,-0.3562 -0.64877,-0.3562 -0.23574,0 -3.48072,5.09269 -7.21106,11.31708 l -6.78244,11.31708 -0.0935,-13.81708 c -0.0809,-11.95342 -0.16517,-13.81708 -0.625,-13.81708 -0.46155,0 -0.53171,1.84542 -0.53291,14.01786 l -10e-4,14.01786 -6.87361,-11.50691 c -3.78049,-6.32881 -7.06502,-11.51184 -7.29896,-11.51786 -0.23395,-0.006 -0.52442,0.14934 -0.6455,0.34525 -0.12107,0.19591 3.16408,5.99323 7.30035,12.88293 l 7.52054,12.52674 0,24.43849 0,24.4385 -10.35715,0 c -5.69642,0 -10.35714,0.11946 -10.35714,0.26546 0,0.14601 4.37837,4.64601 9.72971,10 l 9.72971,9.73454 -9.194,0 c -8.95589,0 -9.19399,0.0185 -9.19399,0.71429 0,0.69697 0.2381,0.71428 9.82143,0.71428 l 9.82143,0 0,14.64286 c 0,12.77778 0.0682,14.64286 0.53571,14.64286 0.46297,0 0.53572,-1.30953 0.53572,-9.64286 z M 18.115149,848.97012 c 0.512954,-0.37509 0.683471,-1.14358 0.832082,-3.75 l 0.186918,-3.27825 -1.388821,-0.0423 c -2.810908,-0.0856 -3.710254,0.52475 -3.710254,2.5182 0,1.94437 0.878471,2.98193 2.376639,2.80703 0.927393,-0.10827 1.171997,-0.0244 1.027411,0.35242 -0.104371,0.27198 -0.189764,0.56172 -0.189764,0.64387 0,0.31881 -1.036243,0.12526 -1.99644,-0.3729 -1.268789,-0.65825 -1.4759,-0.46049 -0.722278,0.68969 0.671339,1.02459 2.476696,1.2423 3.584507,0.43225 z m 56.277068,-0.24253 c 0.602093,-0.6021 0.714286,-1.19048 0.714286,-3.746 0,-2.90047 -0.03479,-3.03251 -0.803572,-3.05005 -0.441964,-0.0101 -1.249021,-0.0287 -1.793464,-0.0413 -0.544439,-0.0126 -1.223225,0.17068 -1.508407,0.40737 -0.75199,0.62409 -1.038515,2.63424 -0.51664,3.62451 0.57594,1.09287 1.014354,1.36476 2.211368,1.37143 0.540179,0.003 0.982143,0.17122 0.982143,0.37382 0,0.70123 -1.155446,0.80745 -2.182668,0.20066 -0.985778,-0.58232 -1.031618,-0.57994 -1.031618,0.0537 0,0.36468 0.192858,0.85591 0.428572,1.09162 0.679071,0.67907 2.700203,0.51408 3.5,-0.28571 z m 191.132593,-0.23393 c 0.53778,-0.48668 0.65312,-1.14202 0.65312,-3.71092 l 0,-3.11986 -1.23009,-0.14361 c -1.35663,-0.15838 -2.70848,0.22472 -3.12936,0.88682 -0.4753,0.74772 -0.30503,2.91741 0.29633,3.77597 0.4569,0.65231 0.83525,0.79785 1.78571,0.68689 1.2818,-0.14964 1.46977,0.0234 0.77741,0.71578 -0.49704,0.49705 -1.71428,0.57734 -1.71428,0.11308 0,-0.17352 -0.32143,-0.39954 -0.71429,-0.50228 -0.87033,-0.22759 -0.95697,0.52407 -0.15306,1.32798 0.73416,0.73416 2.60226,0.7179 3.42851,-0.0299 l 0,10e-6 z m 56.20987,0.0844 c 0.57929,-0.42341 0.71379,-1.03989 0.81807,-3.75 l 0.12482,-3.24329 -1.37482,-0.0423 c -2.07668,-0.0639 -2.39289,0.0201 -3.07125,0.81639 -0.7745,0.90909 -0.80775,2.73465 -0.069,3.78931 0.3915,0.55892 0.91978,0.79375 1.78571,0.79375 0.67636,0 1.22975,0.16576 1.22975,0.36835 0,0.70124 -1.15543,0.80746 -2.18268,0.20066 -0.98575,-0.58231 -1.0316,-0.57993 -1.0316,0.0537 0,0.36468 0.19285,0.8559 0.42857,1.09162 0.58489,0.58489 2.49646,0.5402 3.34246,-0.0781 l 0,0 z M 10.552931,846.65998 c 0.34375,-0.2987 0.625,-0.99663 0.625,-1.55094 0,-1.13675 -0.9142,-1.88099 -2.7919892,-2.27293 -1.299525,-0.27124 -1.8837964,-1.14238 -1.0993393,-1.6391 0.7743607,-0.49032 1.3298643,-0.38803 2.1056143,0.38772 0.9461252,0.94613 1.7779182,0.94018 1.5291962,-0.0109 -0.620614,-2.37324 -5.4689605,-2.26612 -5.4522998,0.12046 0.0085,1.21535 0.4489286,1.65322 2.3454536,2.33175 1.2893679,0.4613 1.7562214,0.8137 1.7562214,1.32566 0,1.04184 -2.1234285,1.18327 -2.7480857,0.18303 -0.2526964,-0.40462 -0.7422178,-0.73568 -1.087825,-0.73568 -0.7435536,0 -0.7523428,0.0514 -0.2115071,1.23846 0.7067821,1.55121 3.5551036,1.90375 5.0295606,0.6225 l 0,0 z m 18.327254,0.56761 1.226318,0 0,-2.03888 c 0,-2.55792 -0.518568,-3.31827 -2.263125,-3.31827 -1.411025,0 -2.379733,0.55572 -2.379733,1.36516 0,0.56679 0.9216,0.66621 1.25,0.13484 0.273672,-0.4428 1.964286,-0.47569 1.964286,-0.0382 0,0.37793 -0.875853,0.7525 -1.759571,0.7525 -0.845615,0 -1.904329,1.22037 -1.750715,2.01803 0.134475,0.69826 1.670722,1.62883 2.174743,1.31733 0.171315,-0.10587 0.863322,-0.1925 1.537797,-0.1925 z m 31.315603,-0.57393 c 1.1979,-1.02882 0.299907,-1.6125 -1.11825,-0.72685 -0.712625,0.44504 -1.828178,0.19956 -1.828178,-0.4023 0,-0.20393 0.797107,-0.36835 1.785714,-0.36835 1.644586,0 1.785714,-0.0674 1.785714,-0.85329 0,-1.35139 -1.137739,-2.48004 -2.5,-2.48004 -1.521939,0 -2.5,1.15818 -2.5,2.9604 0,2.46469 2.459011,3.51598 4.375,1.87043 l 0,0 z m 8.504975,0.5848 c 0.905029,0.0611 0.9141,0.0358 0.779097,-2.17098 -0.178325,-2.9148 -0.214057,-2.99823 -1.379515,-3.22102 -1.524003,-0.29133 -3.324357,0.57683 -3.345517,1.61327 -0.0095,0.46758 1.096053,0.28879 1.651985,-0.26715 0.426136,-0.42613 0.691993,-0.45099 1.306447,-0.12214 0.861482,0.46105 0.82375,0.48843 -1.7139,1.24392 -0.865104,0.25756 -1.093025,0.54185 -1.183572,1.4763 -0.09038,0.93283 0.04817,1.22097 0.714286,1.48544 0.454536,0.18047 1.147857,0.23193 1.540714,0.11436 0.392857,-0.11757 1.126347,-0.18597 1.629975,-0.152 z m 11.839432,-0.76536 c 0.441758,-0.69474 0.321993,-0.9598 -0.433692,-0.9598 -0.392858,0 -0.714286,0.17139 -0.714286,0.38087 0,0.52604 -1.874622,0.26015 -2.055789,-0.29158 -0.104361,-0.31782 0.376417,-0.44643 1.668885,-0.44643 1.757122,0 1.815475,-0.0327 1.815475,-1.01608 0,-2.13265 -2.992746,-3.16936 -4.341368,-1.50388 -1.276921,1.57693 -0.536528,4.45766 1.219511,4.74488 0.964607,0.15778 2.469361,-0.32309 2.841264,-0.90798 l 0,0 z m -67.219407,-1.85266 c 0,-2.14285 -0.107143,-2.67857 -0.535714,-2.67857 -0.428571,0 -0.535714,0.53572 -0.535714,2.67857 0,2.14286 0.107143,2.67858 0.535714,2.67858 0.428571,0 0.535714,-0.53572 0.535714,-2.67858 z m 7.928607,0.62848 c 0.08749,-1.67459 0.230104,-2.07353 0.778597,-2.178 0.921286,-0.17548 1.280878,0.53171 1.287328,2.53167 0.0041,1.28977 0.137797,1.69643 0.5575,1.69643 0.45369,0 0.533218,-0.42785 0.446429,-2.40162 -0.1222,-2.77902 -0.613829,-3.25777 -3.101757,-3.02051 l -1.468132,0.14001 0,2.64106 c 0,2.38043 0.06873,2.64106 0.696464,2.64106 0.597196,0 0.711729,-0.2922 0.803571,-2.0501 z m 10.999965,-1.6999 c 0,-3.51191 -0.04535,-3.75 -0.714286,-3.75 -0.668936,0 -0.714286,0.23809 -0.714286,3.75 0,3.5119 0.04535,3.75 0.714286,3.75 0.668936,0 0.714286,-0.2381 0.714286,-3.75 z m 7.142857,0 c 0,-2.0625 -0.143718,-3.75 -0.319372,-3.75 -0.470725,0 -2.537771,2.00754 -2.537771,2.46471 0,0.52216 0.820693,0.50031 1.357143,-0.0361 0.333332,-0.33333 0.428571,0.18254 0.428571,2.32143 0,2.20635 0.105907,2.75 0.535715,2.75 0.442178,0 0.535714,-0.65476 0.535714,-3.75 z m 6.017914,2.67857 c 0.330472,-0.948 0.536954,-1.07143 1.792275,-1.07143 1.286022,0 1.440789,0.10025 1.654097,1.07143 0.18286,0.83255 0.429128,1.07143 1.1046,1.07143 0.868289,0 0.868625,-0.001 0.296117,-1.33929 -0.315232,-0.73661 -1.000425,-2.42952 -1.52265,-3.76204 -1.314532,-3.35419 -1.943292,-3.20834 -3.516142,0.81561 -1.714025,4.38513 -1.69349,4.28572 -0.885215,4.28572 0.460475,0 0.832411,-0.37004 1.076918,-1.07143 z m 9.168482,-1.44905 c 0.529722,-1.38626 0.872129,-2.61147 0.760911,-2.72269 -0.464968,-0.46497 -1.196739,0.26322 -1.652607,1.64451 -0.539661,1.63519 -0.789104,1.56166 -1.422111,-0.4192 -0.30685,-0.96023 -0.630732,-1.33929 -1.144336,-1.33929 -0.393992,0 -0.662778,0.12716 -0.5973,0.28257 0.06547,0.15541 0.510375,1.36077 0.988665,2.67857 1.171164,3.22683 1.79586,3.20148 3.066778,-0.12447 z m 8.385032,0.54735 c 0,-1.77605 0.08918,-2.00703 0.892858,-2.31259 0.491071,-0.1867 0.892857,-0.48696 0.892857,-0.66723 0,-0.46787 -1.05905,-0.81191 -1.550086,-0.50355 -0.227811,0.14305 -0.69545,0.21383 -1.0392,0.15727 -0.549207,-0.0903 -0.625,0.22473 -0.625,2.5982 0,2.46293 0.06296,2.70103 0.714286,2.70103 0.628093,0 0.714285,-0.2381 0.714285,-1.97313 z m 195.089285,0.82444 c 1.26064,-1.44451 0.52685,-2.9716 -1.69697,-3.53156 -2.0252,-0.50995 -2.65375,-1.18791 -1.61617,-1.7432 0.8769,-0.4693 2.00049,-0.20193 2.2868,0.54419 0.29531,0.76957 1.2942,0.63688 1.2942,-0.17192 0,-0.91712 -1.31832,-1.80597 -2.67857,-1.80597 -1.55732,0 -2.67857,0.89666 -2.67857,2.14204 0,1.17639 0.26236,1.40182 2.49494,2.14368 1.19553,0.39726 1.6122,0.72032 1.6122,1.25 0,1.05761 -2.11631,1.21161 -2.74809,0.19997 -0.50852,-0.81427 -1.7162,-1.00303 -1.7162,-0.26823 0,2.07416 3.93654,2.97113 5.44643,1.241 z m 18.83479,0.68689 c 0.7713,0.2017 0.78159,0.15824 0.53407,-2.25556 -0.13882,-1.35367 -0.37309,-2.59187 -0.52062,-2.75157 -0.33769,-0.36554 -2.09138,-0.42602 -3.09711,-0.10682 -1.02528,0.32541 -1.38625,1.64717 -0.44984,1.64717 0.37447,0 0.68085,-0.16071 0.68085,-0.35714 0,-0.19643 0.48215,-0.35714 1.07143,-0.35714 1.34264,0 1.40435,0.62946 0.0893,0.91077 -2.12864,0.45534 -2.64184,0.83196 -2.52343,1.85183 0.1382,1.19037 1.46843,1.95817 2.62845,1.51713 0.44026,-0.16738 1.15436,-0.21179 1.58691,-0.0987 z m 30.84964,-0.72995 c 0.61911,-0.71751 0.62275,-0.78129 0.0514,-0.89532 -0.33836,-0.0675 -0.791,0.053 -1.00586,0.26786 -0.55268,0.55267 -1.51118,0.48428 -2.0335,-0.14508 -0.38625,-0.46539 -0.181,-0.53571 1.56343,-0.53571 1.87893,0 2.008,-0.0548 2.008,-0.8533 0,-1.32175 -1.13947,-2.48004 -2.43975,-2.48004 -1.64011,0 -2.56139,0.99663 -2.55479,2.76369 0.006,1.73774 0.25672,2.20368 1.43318,2.66875 1.13364,0.44813 2.13932,0.18105 2.97793,-0.79085 l 0,0 z m 8.02743,0.76975 1.306,0.0184 -0.17857,-2.38449 c -0.15782,-2.10756 -0.28225,-2.4334 -1.07143,-2.80566 -1.16429,-0.54922 -2.78014,-0.21751 -3.25404,0.668 -0.5341,0.99798 -0.0986,1.23289 1.03932,0.56067 0.75193,-0.44417 1.13904,-0.48717 1.67672,-0.18625 0.62143,0.34777 0.50171,0.45369 -1.07786,0.9534 -1.60646,0.50822 -1.78775,0.67386 -1.88914,1.72594 -0.0909,0.94285 0.0448,1.22303 0.71428,1.47593 0.45454,0.17168 0.96193,0.23193 1.12758,0.13387 0.1656,-0.0981 0.88882,-0.16998 1.60714,-0.15984 l 0,0 z m 11.931,-0.5805 c 1.19789,-1.02882 0.29989,-1.61251 -1.11825,-0.72685 -0.71261,0.44504 -1.82818,0.19955 -1.82818,-0.4023 0,-0.20393 0.79711,-0.36835 1.78571,-0.36835 1.64458,0 1.78572,-0.0674 1.78572,-0.8533 0,-2.13067 -2.68189,-3.27672 -4.28111,-1.82945 -0.93761,0.84854 -0.99468,3.39893 -0.0939,4.19766 1.15782,1.02668 2.54182,1.02025 3.75,-0.0174 l 0,1e-5 z m -66.875,-2.03322 c 0,-2.44047 -0.0635,-2.67857 -0.71429,-2.67857 -0.65079,0 -0.71428,0.2381 -0.71428,2.67857 0,2.44048 0.0635,2.67857 0.71428,2.67857 0.6508,0 0.71429,-0.23809 0.71429,-2.67857 z m 7.92861,0.625 c 0.0949,-1.81917 0.19882,-2.06659 0.91067,-2.16769 0.75761,-0.1076 0.80358,0.01 0.80358,2.05357 0,1.9296 0.0785,2.16769 0.71428,2.16769 0.63962,0 0.71429,-0.23809 0.71429,-2.2777 0,-2.38076 -0.4038,-3.13262 -1.6679,-3.10553 -0.35944,0.008 -1.17585,0.0275 -1.81425,0.0439 l -1.16071,0.0299 0,2.65468 c 0,2.39394 0.0684,2.65468 0.69646,2.65468 0.59736,0 0.71171,-0.29223 0.80358,-2.05357 z m 10.99996,-1.69643 c 0,-3.5119 -0.0454,-3.75 -0.71429,-3.75 -0.66893,0 -0.71428,0.2381 -0.71428,3.75 0,3.51191 0.0453,3.75 0.71428,3.75 0.66894,0 0.71429,-0.23809 0.71429,-3.75 z m 8.57143,3.21429 c 0,-0.40034 -0.42493,-0.53572 -1.6815,-0.53572 l -1.68151,0 1.50293,-1.53137 c 1.12474,-1.14603 1.50294,-1.81496 1.50294,-2.65832 0,-1.23384 -1.0421,-2.23888 -2.32143,-2.23888 -1.04759,0 -2.32143,0.99099 -2.32143,1.80597 0,0.92907 0.85976,0.8816 1.50011,-0.0828 0.34193,-0.51496 0.72054,-0.69829 1.1231,-0.54381 1.28966,0.49489 1.05653,1.3211 -0.97322,3.44908 -1.10393,1.15735 -2.00713,2.27692 -2.00713,2.48793 0,0.23934 1.00754,0.38365 2.67857,0.38365 2.14285,0 2.67857,-0.10714 2.67857,-0.53571 l 0,0 z m 4.58936,-0.53572 c 0.32271,-0.92575 0.55017,-1.07142 1.67307,-1.07142 1.11603,0 1.35675,0.15133 1.70403,1.07142 0.24082,0.63797 0.66172,1.07143 1.0404,1.07143 0.87607,0 0.7985,-0.42426 -0.7509,-4.10714 -2.08482,-4.95563 -2.37414,-4.7565 -5.31905,3.66071 -0.0913,0.26084 0.14212,0.44643 0.56137,0.44643 0.47618,0 0.84318,-0.3604 1.09108,-1.07143 z m 9.11925,-1.449 c 1.1135,-3.00405 1.09778,-2.83671 0.26639,-2.83671 -0.48639,0 -0.78968,0.43494 -1.11604,1.60066 -0.51689,1.84611 -0.88175,1.7999 -1.47707,-0.18708 -0.30507,-1.01819 -0.61818,-1.41358 -1.1195,-1.41358 -0.40836,0 -0.62646,0.18449 -0.52778,0.44643 0.0925,0.24553 0.533,1.45089 0.97889,2.67857 1.11411,3.06729 1.77489,3.00369 2.99511,-0.28829 l 0,0 z m 8.082,1.35972 c 0.008,-1.86755 0.39189,-2.80061 1.29392,-3.14356 1.658,-0.63038 0.68893,-1.40621 -1.3881,-1.11127 -0.97022,0.13778 -0.98215,0.17155 -0.98215,2.77751 0,2.10682 0.10786,2.63803 0.53572,2.63803 0.36528,0 0.53725,-0.36923 0.54061,-1.16071 l 0,0 z M 13.320788,840.5133 c 0,-0.39682 -0.238096,-0.71428 -0.535714,-0.71428 -0.297618,0 -0.535714,0.31746 -0.535714,0.71428 0,0.39683 0.238096,0.71429 0.535714,0.71429 0.297618,0 0.535714,-0.31746 0.535714,-0.71429 z m 247.500002,-0.35714 c 0,-0.47619 -0.2381,-0.71429 -0.71429,-0.71429 -0.47619,0 -0.71428,0.2381 -0.71428,0.71429 0,0.47619 0.23809,0.71428 0.71428,0.71428 0.47619,0 0.71429,-0.23809 0.71429,-0.71428 z M 147.73737,808.96441 c 0.6191,-0.71751 0.62276,-0.78128 0.0514,-0.89532 -0.33838,-0.0675 -0.79102,0.053 -1.00587,0.26786 -0.55267,0.55267 -1.51117,0.48429 -2.03349,-0.14508 -0.38643,-0.46562 -0.17604,-0.53571 1.60806,-0.53571 l 2.05265,0 -0.23118,-1.15593 c -0.34729,-1.73647 -1.09838,-2.23928 -3.13616,-2.09948 -1.0623,0.0729 -1.7222,1.09395 -1.71647,2.65592 0.006,1.76793 0.25296,2.23204 1.43318,2.69859 1.13364,0.44813 2.13933,0.18105 2.97793,-0.79085 l 0,0 z m 5.41577,-0.004 c 0.28864,-0.4121 0.52479,-0.87421 0.52479,-1.02694 0,-0.52268 -1.35182,-0.27852 -1.56733,0.28309 -0.12908,0.33636 -0.5374,0.51501 -1.02036,0.44643 -0.64764,-0.092 -0.82688,-0.37691 -0.91618,-1.45649 -0.13039,-1.57638 0.55959,-2.05203 1.92028,-1.32381 0.47753,0.25556 0.96868,0.36421 1.09146,0.24143 0.41726,-0.41726 -0.20049,-1.33491 -1.13882,-1.69166 -2.20092,-0.83679 -4.09501,1.79642 -2.97092,4.13026 0.79459,1.64974 3.04627,1.86936 4.07708,0.39767 l 0,2e-5 z m 14.90043,0.1127 c 0.37049,-0.59325 0.42316,-0.58966 0.95467,0.065 0.56177,0.69196 0.81086,0.73994 3.33041,0.64146 l 1.33928,-0.0524 0,-2.03888 c 0,-2.55792 -0.51857,-3.31827 -2.26312,-3.31827 -1.41103,0 -2.37974,0.55572 -2.37974,1.36516 0,0.56679 0.9216,0.66621 1.25,0.13484 0.27368,-0.4428 1.96429,-0.47569 1.96429,-0.0382 0,0.37985 -0.87713,0.7525 -1.77119,0.7525 -0.35275,0 -0.84142,0.24107 -1.08595,0.53571 -0.24454,0.29465 -0.80952,0.53572 -1.25552,0.53572 -0.44601,0 -0.90775,0.25234 -1.0261,0.56076 -0.12908,0.33636 -0.5374,0.51501 -1.02036,0.44643 -0.64764,-0.092 -0.82688,-0.37691 -0.91618,-1.45649 -0.13039,-1.57638 0.55959,-2.05203 1.92028,-1.32381 0.47753,0.25556 0.96868,0.36421 1.09146,0.24143 0.41726,-0.41726 -0.20049,-1.33491 -1.13882,-1.69166 -2.20092,-0.83679 -4.09501,1.79642 -2.97092,4.13026 0.76033,1.57859 3.12121,1.88153 3.97751,0.51037 l 0,2e-5 z m 15.71365,-0.0593 c 1.19645,-1.3837 0.63216,-3.95849 -1.00386,-4.58051 -0.94218,-0.35821 -2.62039,0.0947 -3.09055,0.83417 -0.35062,0.55142 -0.34864,3.15697 0.003,3.70987 0.40029,0.62971 1.93092,1.1541 2.7523,0.94293 0.39286,-0.101 0.99554,-0.50891 1.33929,-0.90646 l -4e-5,0 z m -42.58441,-0.37584 c 0.008,-1.86755 0.39191,-2.80061 1.29394,-3.14356 1.65802,-0.63038 0.68891,-1.4062 -1.3881,-1.11126 -0.9702,0.13777 -0.98215,0.17155 -0.98215,2.7775 0,2.10683 0.10788,2.63804 0.53572,2.63804 0.3653,0 0.53726,-0.36924 0.54059,-1.16072 l 0,0 z m 15.12427,0.625 c -0.11306,-0.29464 -0.34909,-0.53571 -0.5245,-0.53571 -0.17541,0 -0.31893,-0.72322 -0.31893,-1.60715 0,-0.88392 0.16071,-1.60714 0.35714,-1.60714 0.19643,0 0.35714,-0.24107 0.35714,-0.53571 0,-0.29465 -0.16071,-0.53572 -0.35714,-0.53572 -0.19643,0 -0.35714,-0.40178 -0.35714,-0.89285 0,-0.95616 -0.22954,-1.07557 -1.05905,-0.55093 -0.38034,0.24056 -0.50649,0.93841 -0.4617,2.55416 0.0996,3.59444 0.33586,4.24677 1.53791,4.24677 0.77047,0 0.97977,-0.13571 0.82627,-0.53572 z m 1.65657,-2.14286 c 0,-2.14285 -0.10715,-2.67857 -0.53572,-2.67857 -0.42857,0 -0.53571,0.53572 -0.53571,2.67857 0,2.14286 0.10714,2.67858 0.53571,2.67858 0.42857,0 0.53572,-0.53572 0.53572,-2.67858 z m 2.5,0.53572 c 0,-1.66667 0.11904,-2.14286 0.53571,-2.14286 0.29464,0 0.53571,-0.24107 0.53571,-0.53571 0,-0.29465 -0.24107,-0.53572 -0.53571,-0.53572 -0.29464,0 -0.53571,-0.25895 -0.53571,-0.57546 0,-0.46424 0.24158,-0.53014 1.25,-0.34096 1.1062,0.20753 1.25,0.14822 1.25,-0.51553 0,-0.67197 -0.17659,-0.73871 -1.69643,-0.64119 -1.46205,0.0938 -1.7126,0.2229 -1.81342,0.93427 -0.0643,0.45397 -0.34559,0.91313 -0.625,1.02035 -0.57512,0.22069 -0.69801,1.18995 -0.15087,1.18995 0.19842,0 0.35714,0.95238 0.35714,2.14286 0,1.90476 0.0794,2.14286 0.71429,2.14286 0.63492,0 0.71429,-0.2381 0.71429,-2.14286 z m 2.5,-0.53572 c 0,-2.14285 -0.10715,-2.67857 -0.53572,-2.67857 -0.42857,0 -0.53571,0.53572 -0.53571,2.67857 0,2.14286 0.10714,2.67858 0.53571,2.67858 0.42857,0 0.53572,-0.53572 0.53572,-2.67858 z m 13.92857,2.14286 c 0,-0.29464 -0.24107,-0.53571 -0.53572,-0.53571 -0.39682,0 -0.53571,-0.41667 -0.53571,-1.60715 0,-1.19047 0.13889,-1.60714 0.53571,-1.60714 0.29465,0 0.53572,-0.24107 0.53572,-0.53571 0,-0.29465 -0.24107,-0.53572 -0.53572,-0.53572 -0.33794,0 -0.53571,-0.3406 -0.53571,-0.92261 0,-1.11883 -0.83874,-0.99638 -1.00698,0.14702 -0.0628,0.42658 -0.26366,0.77559 -0.44643,0.77559 -0.18277,0 -0.33231,0.24107 -0.33231,0.53572 0,0.29464 0.16072,0.53571 0.35715,0.53571 0.19643,0 0.35714,0.85714 0.35714,1.90476 0,1.04762 0.10714,2.01191 0.2381,2.14286 0.4675,0.46751 1.90476,0.24294 1.90476,-0.29762 z m 1.78571,-2.14286 c 0,-2.44047 -0.0635,-2.67857 -0.71428,-2.67857 -0.6508,0 -0.71429,0.2381 -0.71429,2.67857 0,2.44048 0.0635,2.67858 0.71429,2.67858 0.65079,0 0.71428,-0.2381 0.71428,-2.67858 z m 7.92861,0.625 c 0.0949,-1.81917 0.19883,-2.06659 0.91068,-2.16769 0.7576,-0.1076 0.80357,0.01 0.80357,2.05357 0,1.9296 0.0785,2.1677 0.71428,2.1677 0.63231,0 0.71429,-0.2381 0.71429,-2.0746 0,-2.26365 -0.51596,-3.32002 -1.61404,-3.30458 -0.38907,0.005 -1.22971,0.0234 -1.8681,0.0399 l -1.16072,0.0299 0,2.65468 c 0,2.39395 0.0684,2.65469 0.69647,2.65469 0.59735,0 0.7117,-0.29223 0.80357,-2.05358 z m -28.64289,-4.73214 c 0,-0.39682 -0.2381,-0.71428 -0.53572,-0.71428 -0.29762,0 -0.53571,0.31746 -0.53571,0.71428 0,0.39683 0.23809,0.71429 0.53571,0.71429 0.29762,0 0.53572,-0.31746 0.53572,-0.71429 z m 20.71428,0 c 0,-0.47619 -0.2381,-0.71428 -0.71428,-0.71428 -0.47619,0 -0.71429,0.23809 -0.71429,0.71428 0,0.47619 0.2381,0.71429 0.71429,0.71429 0.47618,0 0.71428,-0.2381 0.71428,-0.71429 z m -1.42857,-4.61897 c 0,-0.94466 0.11097,-1.04439 1.12992,-1.01541 2.11292,0.0601 3.28249,-2.9422 1.81651,-4.66297 -0.67636,-0.79391 -0.99923,-0.88073 -3.03572,-0.81639 l -1.33928,0.0423 0,3.75 c 0,3.51191 0.0454,3.75 0.71428,3.75 0.55194,0 0.71429,-0.23809 0.71429,-1.04754 z m -35.88257,-1.93267 c 1.13188,-1.61599 0.2726,-4.34564 -1.43886,-4.57076 -2.45343,-0.32271 -3.48436,1.11132 -2.89987,4.03376 0.33879,1.69392 3.27394,2.05721 4.33873,0.537 l 0,0 z m 5.88257,-2.95016 c 0,-3.47439 -0.0458,-3.71248 -0.71429,-3.71248 -0.55193,0 -0.71428,0.23809 -0.71428,1.04754 0,0.94466 -0.11097,1.04438 -1.12993,1.01541 -1.37689,-0.0391 -2.4415,1.1133 -2.4415,2.64295 0,2.21846 1.09331,3.09164 3.57477,2.85499 l 1.42523,-0.13592 0,-3.71249 z m 5.08929,3.14216 c 1.1979,-1.02882 0.2999,-1.6125 -1.11825,-0.72685 -0.71263,0.44504 -1.82818,0.19956 -1.82818,-0.4023 0,-0.20393 0.7971,-0.36835 1.78571,-0.36835 1.64459,0 1.78572,-0.0674 1.78572,-0.85329 0,-1.35139 -1.13774,-2.48004 -2.5,-2.48004 -1.52194,0 -2.5,1.15818 -2.5,2.9604 0,2.46469 2.45901,3.51598 4.375,1.87043 l 0,0 z m 5.17857,0.20077 c 0.24553,-0.19644 0.44643,-0.74498 0.44643,-1.21898 0,-0.68251 -0.35297,-1.02123 -1.69643,-1.628 -1.47369,-0.66558 -1.5845,-0.78525 -0.84396,-0.91141 0.46885,-0.0799 0.97495,0.053 1.12467,0.2952 0.14971,0.24224 0.53642,0.33904 0.85936,0.21512 0.45362,-0.17407 0.50489,-0.37904 0.22544,-0.9012 -0.41225,-0.77029 -1.5768,-1.07992 -2.88337,-0.76661 -0.73312,0.17579 -0.89286,0.42915 -0.89286,1.41613 0,1.05148 0.15387,1.25384 1.22844,1.61565 0.67564,0.22749 1.28512,0.58363 1.35438,0.79143 0.20809,0.62427 -0.91607,0.83156 -1.47554,0.27208 -0.5569,-0.55689 -1.64299,-0.71003 -1.64299,-0.23166 0,0.54683 0.89416,1.43688 1.60714,1.59975 0.84009,0.19192 1.96144,-0.0452 2.58929,-0.5475 l 0,0 z m 10.89285,-0.18872 c 0.90117,-0.79134 0.84401,-3.3435 -0.0939,-4.19229 -0.9217,-0.83413 -2.64051,-0.83413 -3.56221,0 -0.50254,0.45479 -0.7189,1.10096 -0.7189,2.14702 0,2.64948 2.40603,3.77426 4.375,2.04527 z m 17.75479,-0.93422 c 0.76836,-2.32815 -0.66594,-4.15058 -3.02264,-3.84059 -1.72184,0.22648 -2.56962,2.95638 -1.42543,4.58994 1.10618,1.5793 3.83104,1.12025 4.44807,-0.74935 z m 12.42379,0.91796 c 0.63492,-0.79415 0.55429,-1.13615 -0.26786,-1.13615 -0.39286,0 -0.71429,0.17139 -0.71429,0.38087 0,0.52604 -1.87462,0.26015 -2.05579,-0.29158 -0.10436,-0.31782 0.37642,-0.44643 1.66889,-0.44643 1.75712,0 1.81547,-0.0327 1.81547,-1.01608 0,-2.11685 -3.02407,-3.13067 -4.37221,-1.46578 -0.77018,0.95112 -0.81274,2.77315 -0.0889,3.80654 0.84518,1.20666 3.10878,1.30173 4.01472,0.16861 z m -65.81143,-0.15401 c 1.19007,-1.03403 1.50305,-2.91824 0.77441,-4.66212 -0.64453,-1.54259 -1.65553,-2.0343 -4.18266,-2.0343 l -1.76247,0 0,3.75 0,3.75 2.12295,0 c 1.68945,0 2.31178,-0.16409 3.04777,-0.80358 l 0,0 z m 3.40071,-1.875 c 0,-2.44047 -0.0635,-2.67857 -0.71428,-2.67857 -0.6508,0 -0.71429,0.2381 -0.71429,2.67857 0,2.44048 0.0635,2.67858 0.71429,2.67858 0.65079,0 0.71428,-0.2381 0.71428,-2.67858 z m 26.78572,0.53572 c 0,-1.66667 0.11904,-2.14286 0.53571,-2.14286 0.29464,0 0.53571,-0.24107 0.53571,-0.53571 0,-0.29465 -0.24107,-0.53572 -0.53571,-0.53572 -0.29464,0 -0.53571,-0.24107 -0.53571,-0.53571 0,-0.29762 0.31746,-0.53572 0.71428,-0.53572 0.40969,0 0.71429,-0.23809 0.71429,-0.55834 0,-0.41478 -0.29844,-0.52957 -1.16072,-0.44643 -0.89983,0.0868 -1.187,0.29744 -1.2777,0.93733 -0.0643,0.45397 -0.34559,0.91313 -0.625,1.02035 -0.57512,0.22069 -0.69801,1.18995 -0.15087,1.18995 0.19842,0 0.35714,0.95238 0.35714,2.14286 0,1.90476 0.0794,2.14286 0.71429,2.14286 0.63492,0 0.71429,-0.2381 0.71429,-2.14286 z m 8.28575,0.0893 c 0.0949,-1.81917 0.19882,-2.06659 0.91067,-2.16769 0.44197,-0.0628 0.80358,-0.34402 0.80358,-0.625 0,-0.49295 -0.50675,-0.69647 -1.25,-0.50203 -0.19643,0.0514 -0.71875,0.0722 -1.16072,0.0463 -0.76599,-0.0449 -0.80357,0.0779 -0.80357,2.62743 0,2.41367 0.0679,2.67458 0.69646,2.67458 0.59736,0 0.71171,-0.29223 0.80358,-2.05358 z m 18.34569,0.79963 c 0.33417,-1.78127 0.76489,-1.84519 1.05029,-0.15586 0.20499,1.21331 0.36845,1.43245 1.00009,1.3408 0.5989,-0.0869 0.91758,-0.64504 1.54095,-2.69885 0.73693,-2.42792 0.74624,-2.58929 0.14941,-2.58929 -0.45273,0 -0.77086,0.47991 -1.1019,1.66223 l -0.46539,1.66223 -0.48468,-1.66223 c -0.35505,-1.21764 -0.66445,-1.66223 -1.15677,-1.66223 -0.50578,0 -0.73181,0.3535 -0.91344,1.42857 -0.29875,1.76829 -0.73714,1.83492 -1.05139,0.1598 -0.21584,-1.1505 -1.01979,-1.95766 -1.48577,-1.49169 -0.10171,0.10171 0.16195,1.32692 0.5859,2.72269 0.59472,1.95799 0.92237,2.53778 1.43414,2.53778 0.47572,0 0.72985,-0.35466 0.89856,-1.25395 l 0,0 z m 11.65431,-0.79963 c 0.0949,-1.81917 0.19882,-2.06659 0.91067,-2.16769 0.82599,-0.11731 1.11438,-0.97275 0.40739,-1.20841 -0.2179,-0.0726 -0.94111,-0.0684 -1.60714,0.009 l -1.21096,0.14136 0,2.6395 c 0,2.37889 0.0688,2.6395 0.69646,2.6395 0.59736,0 0.71171,-0.29223 0.80358,-2.05358 z m -65.07147,-4.73214 c 0,-0.47619 -0.2381,-0.71428 -0.71428,-0.71428 -0.47619,0 -0.71429,0.23809 -0.71429,0.71428 0,0.47619 0.2381,0.71429 0.71429,0.71429 0.47618,0 0.71428,-0.2381 0.71428,-0.71429 z m -1.01026,-61.66249 c 0.53778,-0.48669 0.65312,-1.14203 0.65312,-3.71093 l 0,-3.11986 -1.33929,-0.16505 c -2.47249,-0.30469 -3.44897,0.58195 -3.37829,3.06751 0.0431,1.51623 1.06486,2.46417 2.4782,2.29917 1.2454,-0.14539 1.42756,0.032 0.73938,0.72022 -0.49705,0.49705 -1.71429,0.57734 -1.71429,0.11309 0,-0.17352 -0.32143,-0.39955 -0.71428,-0.50228 -0.52489,-0.13726 -0.71429,-0.011 -0.71429,0.47631 0,1.35502 2.77006,1.92561 3.98974,0.82182 z m 110,0 c 0.53778,-0.48669 0.65312,-1.14203 0.65312,-3.71093 l 0,-3.11986 -1.33929,-0.16505 c -2.47249,-0.30469 -3.44896,0.58195 -3.37829,3.06751 0.0431,1.51623 1.06486,2.46417 2.4782,2.29917 1.2454,-0.14539 1.42756,0.032 0.73938,0.72022 -0.49705,0.49705 -1.71429,0.57734 -1.71429,0.11309 0,-0.17352 -0.32143,-0.39955 -0.71428,-0.50228 -0.52488,-0.13726 -0.71429,-0.011 -0.71429,0.47631 0,1.35502 2.77006,1.92561 3.98974,0.82182 z M 84.660074,726.84656 c 0.688286,-0.53852 0.528622,-1.33326 -0.267857,-1.33326 -0.392857,0 -0.714286,0.17139 -0.714286,0.38087 0,0.52604 -1.874621,0.26015 -2.055789,-0.29158 -0.104361,-0.31782 0.376418,-0.44643 1.668886,-0.44643 1.76926,0 1.815475,-0.0266 1.815475,-1.04592 0,-1.65719 -0.985793,-2.36771 -3.035715,-2.188 -1.70641,0.14959 -2.572832,2.92045 -1.425428,4.5586 0.771621,1.10164 2.834007,1.28952 4.014714,0.36572 z m 15.970786,0.38329 1.12642,0.0423 -0.13558,-2.21873 c -0.17717,-2.89927 -0.21374,-2.98434 -1.3785,-3.207 -1.524001,-0.29133 -3.324354,0.57683 -3.345515,1.61327 -0.0095,0.46757 1.096053,0.28878 1.651986,-0.26715 0.426135,-0.42613 0.691992,-0.45099 1.306446,-0.12214 0.754433,0.40375 0.755853,0.41893 0.06448,0.6881 -0.388825,0.15138 -1.1558,0.37185 -1.704389,0.48993 -1.139954,0.24536 -1.496114,0.88757 -1.18335,2.13372 0.207221,0.82563 1.381175,1.35513 2.147614,0.96867 0.178186,-0.0898 0.830858,-0.1443 1.450388,-0.12101 l 0,0 z m 45.35715,0 1.12642,0.0423 -0.13558,-2.21873 c -0.17717,-2.89927 -0.21374,-2.98434 -1.3785,-3.207 -1.52401,-0.29133 -3.32436,0.57683 -3.34552,1.61327 -0.01,0.46757 1.09605,0.28878 1.65198,-0.26715 0.42614,-0.42613 0.692,-0.45099 1.30645,-0.12214 0.86139,0.461 0.83048,0.48347 -1.7139,1.24608 -0.91988,0.2757 -1.07143,0.49444 -1.07143,1.54642 0,1.00817 0.15822,1.26565 0.89286,1.453 0.49107,0.12524 1.03864,0.14757 1.21683,0.0496 0.17818,-0.0979 0.83086,-0.15901 1.45039,-0.13572 l 0,0 z m 48.67206,-0.38329 c 0.68829,-0.53852 0.52863,-1.33326 -0.26785,-1.33326 -0.39286,0 -0.71429,0.17139 -0.71429,0.38087 0,0.52604 -1.87462,0.26015 -2.05579,-0.29158 -0.10436,-0.31782 0.37642,-0.44643 1.66889,-0.44643 1.76926,0 1.81547,-0.0266 1.81547,-1.04592 0,-1.65719 -0.98579,-2.36771 -3.03571,-2.188 -1.70641,0.14959 -2.57283,2.92045 -1.42543,4.5586 0.77162,1.10164 2.83401,1.28952 4.01471,0.36572 z m 15.97079,0.38329 1.12642,0.0423 -0.13558,-2.21873 c -0.17717,-2.89927 -0.21374,-2.98434 -1.3785,-3.207 -1.524,-0.29133 -3.32435,0.57683 -3.34552,1.61327 -0.01,0.46757 1.09606,0.28878 1.65199,-0.26715 0.42614,-0.42613 0.69199,-0.45099 1.30645,-0.12214 0.75443,0.40375 0.75585,0.41893 0.0645,0.6881 -0.38883,0.15138 -1.1558,0.37185 -1.70439,0.48993 -1.13995,0.24536 -1.49611,0.88757 -1.18335,2.13372 0.20722,0.82563 1.38117,1.35513 2.14761,0.96867 0.17819,-0.0898 0.83086,-0.1443 1.45039,-0.12101 l 0,0 z m 45.35715,0 1.12642,0.0423 -0.13558,-2.21873 c -0.17717,-2.89927 -0.21374,-2.98434 -1.3785,-3.207 -1.52401,-0.29133 -3.32436,0.57683 -3.34552,1.61327 -0.01,0.46757 1.09605,0.28878 1.65198,-0.26715 0.42614,-0.42613 0.692,-0.45099 1.30645,-0.12214 0.86139,0.461 0.83048,0.48347 -1.7139,1.24608 -0.91988,0.2757 -1.07143,0.49444 -1.07143,1.54642 0,1.00817 0.15822,1.26565 0.89286,1.453 0.49107,0.12524 1.03864,0.14757 1.21683,0.0496 0.17818,-0.0979 0.83086,-0.15901 1.45039,-0.13572 l 0,0 z M 73.392253,725.24544 c 0.100339,-1.92381 0.163521,-2.05357 0.999964,-2.05357 0.836443,0 0.899625,0.12976 0.999964,2.05357 0.07859,1.50665 0.245039,2.05358 0.625,2.05358 0.399122,0 0.517893,-0.5305 0.517893,-2.3132 0,-2.01237 -0.1045,-2.37833 -0.803571,-2.81405 -0.488961,-0.30476 -1.327925,-0.43252 -2.142858,-0.3263 l -1.339285,0.17455 0,2.6395 c 0,2.06775 0.112182,2.6395 0.517893,2.6395 0.37996,0 0.546414,-0.54693 0.625,-2.05358 z m 13.928571,0 c 0.100339,-1.92381 0.163522,-2.05357 0.999964,-2.05357 0.836443,0 0.899625,0.12976 0.999965,2.05357 0.08017,1.537 0.241489,2.05358 0.641318,2.05358 0.431692,0 0.513946,-0.46089 0.428607,-2.40162 -0.1222,-2.77902 -0.613829,-3.25777 -3.101757,-3.02051 l -1.468133,0.14001 0,2.64106 c 0,2.38043 0.06873,2.64106 0.696465,2.64106 0.597353,0 0.711703,-0.29223 0.803571,-2.05358 z m 5.285679,0.82683 c 0,-1.81708 0.576385,-3.05897 1.419732,-3.05897 0.645725,0 0.723125,0.22937 0.723125,2.14286 0,1.90476 0.07936,2.14286 0.714286,2.14286 0.63231,0 0.714285,-0.2381 0.714285,-2.0746 0,-2.26365 -0.515957,-3.32002 -1.614043,-3.30458 -0.389064,0.005 -1.229707,0.0234 -1.8681,0.0399 l -1.160714,0.0299 0,2.65468 c 0,2.12163 0.107572,2.65469 0.535714,2.65469 0.372215,0 0.535715,-0.3744 0.535715,-1.22675 l 0,0 z m 37.857147,-1.45183 c 0,-2.44047 -0.0635,-2.67857 -0.71429,-2.67857 -0.65079,0 -0.71429,0.2381 -0.71429,2.67857 0,2.44048 0.0635,2.67858 0.71429,2.67858 0.65079,0 0.71429,-0.2381 0.71429,-2.67858 z m 7.50487,1.33929 c 0.008,-2.19485 0.33623,-2.94643 1.28678,-2.94643 0.80226,0 0.8512,0.1232 0.8512,2.14286 0,1.90476 0.0794,2.14286 0.71429,2.14286 0.63231,0 0.71428,-0.2381 0.71428,-2.0746 0,-2.26365 -0.51595,-3.32002 -1.61404,-3.30458 -0.38906,0.005 -1.22971,0.0234 -1.8681,0.0399 l -1.16071,0.0299 0,2.65468 c 0,2.12163 0.10757,2.65469 0.53571,2.65469 0.38009,0 0.53713,-0.38908 0.54059,-1.33929 z m 45.42373,-0.71429 c 0.10034,-1.92381 0.16352,-2.05357 0.99997,-2.05357 0.83644,0 0.89962,0.12976 0.99996,2.05357 0.0786,1.50665 0.24504,2.05358 0.625,2.05358 0.39912,0 0.51789,-0.5305 0.51789,-2.3132 0,-2.01237 -0.1045,-2.37833 -0.80357,-2.81405 -0.48896,-0.30476 -1.32792,-0.43252 -2.14285,-0.3263 l -1.33929,0.17455 0,2.6395 c 0,2.06775 0.11218,2.6395 0.51789,2.6395 0.37996,0 0.54642,-0.54693 0.625,-2.05358 z m 13.92857,0 c 0.10034,-1.92381 0.16353,-2.05357 0.99997,-2.05357 0.83644,0 0.89962,0.12976 0.99996,2.05357 0.0802,1.537 0.24149,2.05358 0.64132,2.05358 0.43169,0 0.51395,-0.46089 0.42861,-2.40162 -0.1222,-2.77902 -0.61383,-3.25777 -3.10176,-3.02051 l -1.46813,0.14001 0,2.64106 c 0,2.38043 0.0687,2.64106 0.69646,2.64106 0.59736,0 0.71171,-0.29223 0.80357,-2.05358 z m 5.28568,0.82683 c 0,-1.81708 0.57639,-3.05897 1.41973,-3.05897 0.64573,0 0.72313,0.22937 0.72313,2.14286 0,1.90476 0.0794,2.14286 0.71429,2.14286 0.63231,0 0.71428,-0.2381 0.71428,-2.0746 0,-2.26365 -0.51596,-3.32002 -1.61404,-3.30458 -0.38907,0.005 -1.22971,0.0234 -1.8681,0.0399 l -1.16072,0.0299 0,2.65468 c 0,2.12163 0.10758,2.65469 0.53572,2.65469 0.37221,0 0.53571,-0.3744 0.53571,-1.22675 l 0,0 z m 37.85715,-1.45183 c 0,-2.44047 -0.0635,-2.67857 -0.71429,-2.67857 -0.65079,0 -0.71429,0.2381 -0.71429,2.67857 0,2.44048 0.0635,2.67858 0.71429,2.67858 0.65079,0 0.71429,-0.2381 0.71429,-2.67858 z m 7.50487,1.33929 c 0.008,-2.19485 0.33623,-2.94643 1.28678,-2.94643 0.80226,0 0.8512,0.1232 0.8512,2.14286 0,1.90476 0.0794,2.14286 0.71429,2.14286 0.63231,0 0.71428,-0.2381 0.71428,-2.0746 0,-2.26365 -0.51595,-3.32002 -1.61404,-3.30458 -0.38906,0.005 -1.22971,0.0234 -1.8681,0.0399 l -1.16071,0.0299 0,2.65468 c 0,2.12163 0.10757,2.65469 0.53571,2.65469 0.38009,0 0.53713,-0.38908 0.54059,-1.33929 z m -129.29059,-1.16071 c 0,-0.64626 -0.2381,-0.71429 -2.5,-0.71429 -2.2619,0 -2.5,0.068 -2.5,0.71429 0,0.64625 0.2381,0.71428 2.5,0.71428 2.2619,0 2.5,-0.068 2.5,-0.71428 z m 110,0 c 0,-0.64626 -0.23809,-0.71429 -2.5,-0.71429 -2.2619,0 -2.5,0.068 -2.5,0.71429 0,0.64625 0.2381,0.71428 2.5,0.71428 2.26191,0 2.5,-0.068 2.5,-0.71428 z m -110,-2.32143 c 0,-0.42517 -0.51587,-0.53572 -2.5,-0.53572 -1.98413,0 -2.5,0.11055 -2.5,0.53572 0,0.42517 0.51587,0.53571 2.5,0.53571 1.98413,0 2.5,-0.11054 2.5,-0.53571 z m 110,0 c 0,-0.42517 -0.51587,-0.53572 -2.5,-0.53572 -1.98413,0 -2.5,0.11055 -2.5,0.53572 0,0.42517 0.51587,0.53571 2.5,0.53571 1.98413,0 2.5,-0.11054 2.5,-0.53571 z"
       id="path4037"
       inkscape:connector-curvature="0" />
    <path
       sodipodi:type="star"
       style="fill:#0a0808;fill-opacity:0"
       id="path4058"
       sodipodi:sides="5"
       sodipodi:cx="115"
       sodipodi:cy="927.36218"
       sodipodi:r1="77.620872"
       sodipodi:r2="38.810436"
       sodipodi:arg1="0.26060239"
       sodipodi:arg2="0.88892092"
       inkscape:flatsided="false"
       inkscape:rounded="0"
       inkscape:randomized="0"
       d="M 190,947.36218 139.46028,957.4943 119.15514,1004.8718 93.901298,959.93663 42.568021,955.26574 77.5,917.36218 66.079431,867.09795 l 46.842999,21.50944 44.27497,-26.39411 -5.98141,51.19713 z"
       inkscape:transform-center-x="-1.2840102"
       inkscape:transform-center-y="6.1803399"
       transform="translate(-49.999999,139.99979)" />
    <path
       style="fill:none;stroke:#000000;stroke-width:1px;stroke-linecap:butt;stroke-linejoin:miter;stroke-opacity:1;display:inline"
       d="m 35.000001,1017.362 10,-10"
       id="path3091-1"
       inkscape:connector-curvature="0" />
    <path
       style="fill:none;stroke:#000000;stroke-width:3.88998485px;stroke-linecap:butt;stroke-linejoin:miter;stroke-opacity:1;display:inline"
       d="m 95,1069.362 40,0"
       id="path3062-5"
       inkscape:connector-curvature="0" />
    <path
       style="fill:none;stroke:#000000;stroke-width:3.91144586px;stroke-linecap:butt;stroke-linejoin:miter;stroke-opacity:1;display:inline"
       d="m 95,1075.8569 40,0"
       id="path3064-2"
       inkscape:connector-curvature="0" />
    <path
       style="fill:none;stroke:#000000;stroke-width:1px;stroke-linecap:butt;stroke-linejoin:miter;stroke-opacity:1;display:inline"
       d="m 115,1077.362 0,10"
       id="path3087-7"
       inkscape:connector-curvature="0" />
    <path
       style="fill:none;stroke:#000000;stroke-width:1px;stroke-linecap:butt;stroke-linejoin:miter;stroke-opacity:1;display:inline"
       d="m 110,1092.1196 10,-10"
       id="path3091-1-6"
       inkscape:connector-curvature="0" />
    <text
       xml:space="preserve"
       style="font-size:10px;font-style:normal;font-weight:normal;line-height:125%;letter-spacing:0px;word-spacing:0px;fill:#000000;fill-opacity:1;stroke:none;font-family:Sans"
       x="80"
       y="1032.3619"
       id="text4105"
       sodipodi:linespacing="125%"><tspan
         sodipodi:role="line"
         id="tspan4107"
         x="80"
         y="1032.3619">Difference Amp</tspan></text>
    <path
       style="fill:none;stroke:#000000;stroke-width:1px;stroke-linecap:butt;stroke-linejoin:miter;stroke-opacity:1"
       d="m 75,1017.362 0,25 80,0 0,-25 z"
       id="path4109"
       inkscape:connector-curvature="0" />
    <path
       style="fill:none;stroke:#000000;stroke-width:1px;stroke-linecap:butt;stroke-linejoin:miter;stroke-opacity:1"
       d="m 70,1007.362 25,0 0,10"
       id="path4111"
       inkscape:connector-curvature="0" />
    <path
       style="fill:none;stroke:#000000;stroke-width:1px;stroke-linecap:butt;stroke-linejoin:miter;stroke-opacity:1"
       d="m 160,1007.362 -25,0 0,10"
       id="path4113"
       inkscape:connector-curvature="0" />
    <path
       style="fill:none;stroke:#000000;stroke-width:1px;stroke-linecap:butt;stroke-linejoin:miter;stroke-opacity:1"
       d="m 115,1042.362 0,25"
       id="path4115"
       inkscape:connector-curvature="0" />
    <path
       style="fill:none;stroke:#000000;stroke-width:1px;stroke-linecap:butt;stroke-linejoin:miter;stroke-opacity:1"
       d="m 115,1057.362 80,0 -10,-5"
       id="path4117"
       inkscape:connector-curvature="0" />
    <path
       style="fill:none;stroke:#000000;stroke-width:1px;stroke-linecap:butt;stroke-linejoin:miter;stroke-opacity:1"
       d="m 195,1057.362 -10,5"
       id="path4119"
       inkscape:connector-curvature="0" />
    <text
       xml:space="preserve"
       style="font-size:10px;font-style:normal;font-weight:normal;line-height:125%;letter-spacing:0px;word-spacing:0px;fill:#000000;fill-opacity:1;stroke:none;font-family:Sans"
       x="165.00002"
       y="1047.3619"
       id="text4121"
       sodipodi:linespacing="125%"><tspan
         sodipodi:role="line"
         id="tspan4123"
         x="165.00002"
         y="1047.3619">Cross-Corrrelation</tspan></text>
    <text
       xml:space="preserve"
       style="font-size:10px;font-style:normal;font-weight:normal;line-height:125%;letter-spacing:0px;word-spacing:0px;fill:#000000;fill-opacity:1;stroke:none;font-family:Sans"
       x="58.613281"
       y="1067.3619"
       id="text4125"
       sodipodi:linespacing="125%"><tspan
         sodipodi:role="line"
         id="tspan4127"
         x="60"
         y="1067.3619"
         style="text-align:center;text-anchor:middle">Average over </tspan><tspan
         sodipodi:role="line"
         x="58.613281"
         y="1079.8619"
         id="tspan4129"
         style="text-align:center;text-anchor:middle">time/frequency</tspan></text>
  </g>
</svg>
