<?xml version="1.0" encoding="UTF-8"?>
<svg xmlns="http://www.w3.org/2000/svg"
    xmlns:latexdraw="http://latexdraw.sourceforge.net/namespaces/latexdraw"
    version="1.1" baseProfile="full">
    <g>
        <g latexdraw:type="joinedLines" id="id2">
            <polyline
                points="200.0,20.0 200.0,260.0 200.0,260.0 200.0,260.0 200.0,240.0 "
                stroke-width="2.0" stroke="black" fill="none" latexdraw:rotationAngle="0.0"/>
        </g>
        <g latexdraw:type="joinedLines" id="id8">
            <polyline points="180.0,180.0 180.0,100.0 "
                stroke-width="2.0" stroke="black"
                latexdraw:rotationAngle="0.0" marker-end="url(#arrow1-8)"/>
        </g>
        <g latexdraw:type="text" id="id10" fill="black" latexdraw:position="bl">
            <text x="164.0" y="135.0"><![CDATA[J]]></text>
        </g>
        <g latexdraw:type="rectangle" id="id37">
            <rect x="201.0" y="21.0" width="18.0" height="238.0"
                latexdraw:borderPos="outer" stroke-width="2.0"
                stroke="white" fill="url(#pattern37)"/>
        </g>
        <g latexdraw:type="joinedLines" id="id49">
            <polyline
                points="340.0,20.0 340.0,260.0 340.0,260.0 340.0,260.0 340.0,240.0 "
                stroke-width="2.0" stroke="black" fill="none"
                stroke-linecap="round"
                stroke-dasharray="1, 7.291666666666667" latexdraw:rotationAngle="0.0"/>
        </g>
        <g latexdraw:type="joinedLines" id="id50">
            <polyline points="320.0,180.0 320.0,100.0 "
                stroke-width="2.0" stroke="black"
                latexdraw:rotationAngle="0.0" marker-end="url(#arrow1-50)"/>
        </g>
        <g latexdraw:type="text" id="id51" fill="black" latexdraw:position="bl">
            <text x="304.0" y="135.0"><![CDATA[J]]></text>
        </g>
        <g latexdraw:type="text" id="id60" fill="black" latexdraw:position="bl">
            <text x="220.0" y="240.0"><![CDATA[PEC]]></text>
        </g>
        <g latexdraw:type="joinedLines" id="id65">
            <polyline points="360.0,180.0 360.0,100.0 "
                stroke-width="2.0" stroke="black"
                latexdraw:rotationAngle="0.0" marker-start="url(#arrow0-65)"/>
        </g>
        <g latexdraw:type="text" id="id78" fill="black" latexdraw:position="bl">
            <text x="364.0" y="135.0"><![CDATA[J]]></text>
        </g>
    </g>
    <defs>
        <marker overflow="visible" orient="auto" id="arrow1-8">
            <path
                d="M 0.0 0.0 L -4.652083333333334 1.6614583333333335 L -4.652083333333334 0.0 L -4.652083333333334 -1.6614583333333335 z "
                latexdraw:arrSizeNum="2.0" fill="black"/>
        </marker>
        <pattern latexdraw:type="vlines*"
            latexdraw:rotationAngle="0.7853981633974483"
            latexdraw:size="7.055555555555555"
            patternUnits="userSpaceOnUse" id="pattern37" x="0" y="0"
            width="220" height="260">
            <rect width="220" height="260" fill="white" stroke="none"/>
            <g stroke="black" stroke-width="1.4111111111111112" stroke-dasharray="none">
                <path d="M 200.0 31.973674828092207 L 211.97367482809221 20.0 M 200.0 43.947349656184414 L 223.94734965618443 20.0 M 200.0 55.92102448427662 L 235.92102448427664 20.0 M 200.0 67.89469931236883 L 247.89469931236886 20.0 M 200.0 79.86837414046103 L 259.86837414046107 20.0 M 200.0 91.84204896855323 L 271.8420489685533 20.0 M 200.0 103.81572379664543 L 283.8157237966455 20.0 M 200.0 115.78939862473763 L 295.7893986247377 20.0 M 200.0 127.76307345282983 L 307.76307345282993 20.0 M 200.0 139.73674828092203 L 319.73674828092214 20.0 M 200.0 151.71042310901424 L 331.71042310901436 20.0 M 200.0 163.68409793710646 L 343.68409793710657 20.0 M 200.0 175.65777276519867 L 355.6577727651988 20.0 M 200.0 187.6314475932909 L 367.631447593291 20.0 M 200.0 199.6051224213831 L 379.6051224213832 20.0 M 200.0 211.57879724947531 L 391.57879724947543 20.0 M 200.0 223.55247207756753 L 403.55247207756764 20.0 M 200.0 235.52614690565974 L 415.52614690565986 20.0 M 200.0 247.49982173375196 L 427.49982173375207 20.0 M 200.0 259.4734965618442 L 439.4734965618443 20.0 M 200.0 271.4471713899364 L 451.4471713899365 20.0 M 200.0 283.4208462180286 L 463.4208462180287 20.0 M 200.0 295.3945210461208 L 475.39452104612093 20.0 M 200.0 307.36819587421303 L 487.36819587421314 20.0 "/>
            </g>
        </pattern>
        <marker overflow="visible" orient="auto" id="arrow1-50">
            <path
                d="M 0.0 0.0 L -4.652083333333334 1.6614583333333335 L -4.652083333333334 0.0 L -4.652083333333334 -1.6614583333333335 z "
                latexdraw:arrSizeNum="2.0" fill="black"/>
        </marker>
        <marker overflow="visible" orient="auto" id="arrow0-65">
            <path
                d="M 0.0 0.0 L 4.652083333333334 1.6614583333333335 L 4.652083333333334 0.0 L 4.652083333333334 -1.6614583333333335 z "
                latexdraw:arrSizeNum="2.0" fill="black"/>
        </marker>
    </defs>
    <metadata>
        <latexdraw:metadata>
            <latexdraw:latexIncludes><![CDATA[
]]></latexdraw:latexIncludes>
            <latexdraw:displayXScale>true</latexdraw:displayXScale>
            <latexdraw:displayYScale>true</latexdraw:displayYScale>
            <latexdraw:unit>CM</latexdraw:unit>
            <latexdraw:zoom>1.0</latexdraw:zoom>
            <latexdraw:magneticGridStyle>CUSTOMISED</latexdraw:magneticGridStyle>
            <latexdraw:gridGap>20</latexdraw:gridGap>
            <latexdraw:magneticGrid>true</latexdraw:magneticGrid>
            <latexdraw:version>3.2.0</latexdraw:version>
            <latexdraw:size>
                <latexdraw:width>1382</latexdraw:width>
                <latexdraw:height>754</latexdraw:height>
            </latexdraw:size>
            <latexdraw:position>
                <latexdraw:x>-8.0</latexdraw:x>
                <latexdraw:y>-8.0</latexdraw:y>
            </latexdraw:position>
        </latexdraw:metadata>
    </metadata>
</svg>
